<svg width="2931" height="1685" viewBox="0 0 2931 1685" xmlns="http://www.w3.org/2000/svg"><g fill="#FFF" fill-rule="nonzero" fill-opacity=".2"><path d="M2228.09 302.43l-26.58 182.81-.16 1.08 14.65 11.7 47.55-18.86 31.4-12.5 18.65-23.43 7.52-51.31-12.46-10.08 17.1-21.31 7.5-51.09-41-32.41-64.17 25.4zm88.93 91.1l-7.06 48.14-17.37 21.86-30.45 12.12-43.48 17.19 25.69-175.11 9.47 7.56-10 68.16 33.21-13.08 9.5 7.58-44.53 17.87-10.32 70.34 18.67-7.35 31.4-12.5 18.64-23.44 6.92-47.15 9.71 7.81zm-60.78-71.23l-9.49-7.57 42.44-16.83 9.65 7.51-42.6 16.89zm43.82-13.26l-4.29 29.23-17.27 22.77-27.49 10 6.64-45.22 42.41-16.78zm-12.11 82.49l-4.29 29.42-17.13 21.86-27.61 10.87 6.62-45.13 42.41-17.02zm41.18-80.45l-7 47.87-16.47 20.52-10.16-7.79c17.1-21.47 17.1-21.48 17.18-22l6.79-46.26 9.66 7.66zm-20.2 37.53c-2 2.48-13.18 16.58-17.68 22.22l-1.21 1.52 13.85 10.62-7.09 48.34-17.37 21.83-30.45 12.12-12.51 4.93 1.78-12.13 30.62-12.07 18.4-23.47 5.11-34.81-14.65-11.7-29.13 11.47 1.78-12.1 30.48-11.14 18.55-24.45 5.11-34.81-14.71-11.45-48.56 19.26-26.33 179.47-9.47-7.56 26.11-179.53 60-23.77 24.37 19.26-7 47.95zM2857.12 1181.82l-202 110.81-1.2.66-.65 23.38 54.49 33.19 36 21.89 37.34 1 56.75-31 .66-20 34.07 1 56.51-30.9 1.49-65.16-73.46-44.87zm-23.92 157l-53.24 29.11-34.78-.9-34.95-21.22-49.78-30.33 193.68-105.95-.42 15.1-75.39 41.23 38 23.25-.42 15.16-51.24-30.9-77.8 42.54 21.34 13.06 36 21.89 37.34 1 52.12-28.55-.46 15.51zm25.28-114l.42-15.13 48.63 29.62-.23 15.25-48.82-29.74zm46.12 33.68l-32.33 17.68-35.65-.1-30.64-19.84 50-27.35 48.62 29.61zm-91.24 49.89l-32.55 17.8-34.64-.64-31.57-19.34 49.92-27.29 48.84 29.47zm111-19.42l-52.95 29-32.82-1 .13-16c34.22.92 34.23.91 34.83.58l51.16-28-.35 15.42zm-52.54 8.08c-3.95-.09-26.41-.68-35.41-.92l-2.43-.06-.17 21.77-53.46 29.24-34.79-.9-34.9-21.28-14.3-8.76 13.42-7.34 35 21.44 37.19.7 38.51-21.06.65-23.38-33.3-20.39 13.38-7.32 34 22 38.28.11 38.5-21.06.35-23.24-55.68-33.89-198.48 108.56.42-15.11 198.39-108.83 68.77 41.94-.88 38.74-53.06 29.04zM758.22 1103.06l70.22-128 .41-.76-7.61-12.71-40.42.82-26.7.57-20.28 12.2-19.76 35.9 6.46 10.92-18.55 11-19.68 35.75 21.35 35.38 54.56-1.07zm-40.66-92l18.53-33.68 18.9-11.36 25.9-.56 36.92-.74-67.43 122.51-4.92-8.21 26.24-47.7-28.2.5-4.94-8.24 37.91-.92 27.08-49.22-15.84.29-26.71.57-20.28 12.23-18.16 33-5-8.47zm25.31 69.54l4.93 8.23-36.07.73-5.07-8.23 36.21-.73zm-36.11-2.3l11.26-20.45 19.08-12.08 23.12.16-17.41 31.6-36.05.77zm31.77-57.77l11.33-20.59 18.73-11.41 23.45-.42-17.38 31.57-36.13.85zm-52.73 48.18l18.44-33.5 17.87-10.65 5.38 8.58c-18.6 11.17-18.61 11.18-18.82 11.56l-17.81 32.36-5.06-8.35zm25.33-22.2c2.14-1.3 14.34-8.63 19.23-11.57l1.32-.79-7.32-11.62 18.62-33.83 18.89-11.36 25.89-.55 10.63-.19-4.67 8.49-26 .46-20.11 12.3-13.41 24.36 7.62 12.71 24.73-.44-4.66 8.46-25.65-.18-20.49 13-13.4 24.37 7.72 12.53 41.28-.83 69.11-125.59 4.92 8.21-69 125.7-51 1-12.71-21 18.46-33.64zM1526.6 823.58l-21.25 2.13-93.24 204.56-.56 1.23 13.46 18.73 22.69-2.3 93.07-204.28.55-1.21-12.52-17.91-.81-1.12-1.37.15-.02.02zm-109.69 207.39l91.56-200.9 14.56-1.46-97.37 214.55-8.75-12.19zm13 14.09l97.37-214.53 8.7 12.43-91.41 200.57-14.66 1.53zM1337.8 537.19l-29.14-10.73-23.91 20 18 104.44h-.07l6 34 284.78 104.89 1.74.64 23.92-20.05-5.46-30.57-128.4-47.19-14.41-81.09-29.14-10.72-23.8 19.66 8.82 50.65-70.33-25.85-18.6-108.08zm-43.3 9.49l15.41-12.92 18.75 6.89-15.41 12.88-18.75-6.85zm38.24-1.09l16.72 97.11-18.75-6.89-13.35-77.28 15.38-12.94zm276.64 224.69l-15.41 12.91-279.58-103-3.45-19.42 268 98.32 30.44 11.19zm-144.19-154l13.11 73.81-18.89-6.94c-1.77-10.1-10.1-57.5-13-73.75l18.78 6.88zm-35.68 62.7l5.42 1.9-10.06-57.86 15.25-12.61c3.12 17.75 12.85 73.11 13.29 75.63l.43 1.86 154.14 56.63 3.55 19.68-301.87-110.68-17.36-100.83 18.74 6.89 14 81 104.47 38.39zM1062.84 177.44l-11.47-19.91-23 .06-39.2 67.76-12.74 22.18 111.88 194.2.68 1.19h23.06l11.36-20-50.48-87.52 30.21-52.87-11.48-19.85-22.8-.11-19 32.9-27.6-47.94 40.58-70.09zm-29-15.11h14.85l7.38 12.78h-14.86l-7.37-12.78zm22.21 17.48l-36.48 63-7.37-12.78 29-50.17 14.85-.05zm50.57 258.34h-14.84L981.89 247.53l7.23-12.64 105.48 182.54 12.02 20.72zm-8.96-155.62l-27.49 48.06-7.43-12.87 27.55-48 7.37 12.81zm-49.91 18.68l2.18 3.64 21.73-37.53 14.62.07-28.3 49.14-.64 1.26 60.61 105.07-7.3 12.84-118.78-205.6 37.79-65.39 7.4 12.82-30.4 52.48 41.09 71.2zM1644.1 918.72l-6 22.18 16.34 16.25 75.63-20.2v.06l24.64-6.71 58.27-216.47.36-1.32-16.34-16.27-22.17 6.1-26.17 97.58-58.72 16-5.94 22.15 16 16.2 36.68-9.85-14.35 53.45-78.23 20.85zm9.86 31.23l-10.52-10.48 3.82-14.25 10.53 10.48-3.83 14.25zm-3.3-28.06l70.33-18.75-3.83 14.25-56 15-10.5-10.5zm146.87-218.44l10.52 10.48-57.17 212.51-14.06 3.83 54.52-203.74 6.19-23.08zM1693.8 819.76l53.43-14.55-3.85 14.32-53.4 14.43 3.82-14.2zm48.5 22.08l1-4.11-41.87 11.24-10.29-10.38 54.75-14.81 1.34-.43 31.43-117.16 14.24-3.92-61.41 229.4-73 19.5 3.82-14.25 58.63-15.66 21.36-79.42zM360.08 772.89l28.76 298.09.17 1.77 27.59 12.78 67.58-48.06 44.62-31.81 20.3-44.1-8-83.69-23.57-11 18.7-40.16-7.94-83.34-77-35.18-91.21 64.7zm175.21 109.07l7.47 78.51-18.91 41.06-43.27 30.85-61.74 43.9-27.18-285.6 17.83 8.24 10.58 111.18 47.23-33.42 17.89 8.27-63.2 45.34 10.92 114.72 26.54-18.78 44.62-31.81 20.3-44.1-7.32-76.91 18.24 8.55zm-123.22-88.67l-17.86-8.26 60.32-42.89 18.13 8.09-60.59 43.06zm63.87-37.76l4.54 47.67-18.4 42.52-39.42 26.38-7-73.76 60.28-42.81zm12.8 134.55l4.57 48-18.53 41-39.27 27.79-7-73.61 60.23-43.18zm33.75-142.58l7.43 78.1-18 38.69-19-8.35c18.63-40.41 18.63-40.43 18.55-41.31l-7.18-75.45 18.2 8.32zm-17.29 66.9c-2.13 4.67-14.36 31.19-19.26 41.81l-1.28 2.82 25.91 11.37 7.51 78.84-18.91 41.09-43.27 30.84-17.79 12.59-1.89-19.79 43.56-30.81 19.9-44.07-5.4-56.79-27.62-12.77-41.42 29.31-1.88-19.73 43.69-29.31 19.76-45.66-5.41-56.79-27.57-12.33-69 49.08 27.83 292.76-17.83-8.25-28.25-292.74 85.36-60.63 45.81 20.92 7.45 78.24zM2432.52 1110.42l22.91 1.32 12.6-19.3-35.14-70h.06l-11.58-22.76-223.78-13.05-1.37-.08-12.6 19.3 10.47 20.46 100.86 5.82 27.58 54.24 22.9 1.32 12.6-19-17.09-33.91 55.25 3.18 36.33 72.46zm28.57-16l-8.12 12.43-14.74-.85 8.13-12.47 14.73.89zm-26.8 9l-32.63-65.08 14.73.85 26 51.78-8.1 12.45zm-243.72-99.48l8.09-12.41 219.69 12.82 6.61 13-210.53-12-23.86-1.41zm135 77.94l-25.15-49.35 14.84.85 25 49.35-14.69-.85zm11.77-52l-4.24-.17 19.52 38.71-8.08 12.19c-6-11.88-24.77-48.92-25.62-50.61l-.7-1.22-121.1-7-6.73-13.15 237.1 13.54 33.91 67.51-14.72-.85-27.25-54.22-82.09-4.73z"/></g></svg>