<svg width="2931" height="1685" viewBox="0 0 2931 1685" xmlns="http://www.w3.org/2000/svg"><g fill="#FFF" fill-rule="nonzero" fill-opacity=".2"><path d="M592.88 418.84l245.48 235.27 1.46 1.4 33.19-9.45 22.58-91.4 14.85-60.42-15.18-53-68.83-66.13-28.46 7.94-13.66-48.41-68.53-65.85-92.37 26.74-30.53 123.31zm231.57-35.86l64.56 62 14.14 49.36-14.4 58.59-20.62 83.6-234.9-225.71 21.45-6.1 91.43 87.81 15.91-63.74 21.52-6.13-20.83 85.82 94.35 90.65 8.94-35.82 14.85-60.42-15.18-53-63.26-60.77 22.04-6.14zM652.74 397.9l-21.49 6.12 20.15-81.58 21.57-6.43-20.23 81.89zm27-79.83l39.2 37.67 15.66 50.22-14.35 51.92-60.65-58.28 20.14-81.53zm110.62 106.32l39.48 37.94 14.43 49-13.22 53-60.54-58.17 19.85-81.77zm-76.52-147.7l64.22 61.71 13.15 46.64-22.55 6.9c-13.88-48.59-13.9-48.6-14.62-49.3l-62.05-59.62 21.85-6.33zm34.65 70.38c1.62 5.6 10.73 37.48 14.38 50.25l1 3.45 30.72-9.4 64.84 62.3 14.14 49.36-14.4 58.59-6 24-16.27-15.64 14.66-58.77-15.5-52.68-46.7-44.88-33.18 9.45-14 55.9-16.23-15.59 15.91-57.59-16.8-53.92-46.7-44.88-32.87 9.8-23.06 93.35 240.8 231.36-21.46 6.1-241.11-231.05 28.58-115.38 54.91-15.92 64.34 61.79zM1985.82 683.46l-24.7 24.07 88.28 352.28.54 2.12 35.86 10.1 26.34-25.75-88.21-351.75-.52-2.08-33.83-10-2.15-.61-1.58 1.58-.03.04zm70.35 372.41l-86.71-346 16.92-16.5 93.12 369.06-23.33-6.56zm30.6 4.7l-93.11-369.04 23.51 6.93 86.64 345.5-17.04 16.61zM255.48 939.33l-31.24-6.32-222.91 250.6-1.33 1.5 10.94 32.63 33.35 6.7 222.56-250.27 1.31-1.48-10-31-.66-2-2-.38-.02.02zM7.85 1186.72L226.78 940.6l21.39 4.33-233.2 263-7.12-21.21zm12.34 25.81l233.22-263 6.93 21.55-218.59 245.77-21.56-4.32zM2844.23 936.61l-14.94 1.49-65.55 143.83-.39.86 9.46 13.17 15.95-1.62 65.43-143.63.39-.85-8.8-12.57-.57-.79-1 .1.02.01zm-77.16 145.81l64.38-141.25 10.23-1-68.42 150.82-6.19-8.57zm9.14 9.9l68.46-150.85 6.12 8.74-64.23 141.07-10.35 1.04zM1049.66 1041.01l-11.59-9.48-148.05 55.35-.89.33-2.62 16 12.42 10.13 147.83-55.31.88-.32 2.67-15.12.16-1-.76-.61-.05.03zm-157.61 48.53l145.41-54.31 8 6.51-155.07 58.25 1.66-10.45zm-.54 13.47l155.09-58.26-1.86 10.51-145.2 54.3-8.03-6.55zM1938.93 1247.17l33.25-8.36 9.33-33.13-81.37-84h.09l-26.68-27.27-324.73 81.47-2 .49-9.32 33.16 24.07 24.48 146.34-36.81 63.56 65 33.22-8.35 9.46-32.71-39.49-40.72 80.16-20.17 84.11 86.92zm33.56-35.57l-6 21.35-21.37 5.38 6-21.36 21.37-5.37zm-34.18 24.77l-75.6-78.11 21.37-5.37 60.24 62.16-6.01 21.32zm-391.79-32.78l6-21.34 318.81-80 15.21 15.55-305.38 77-34.64 8.79zm227.14 50.73l-57.83-59.12 21.53-5.41 57.66 59.15-21.36 5.38zm-6.47-79.33l-6.11 1.65 45.12 46.44-6.07 21c-13.87-14.24-57.16-58.64-59.13-60.66l-1.54-1.43-175.7 44.2-15.48-15.73 343.93-86.74 78.52 81-21.36 5.38-63.07-65.09-119.11 29.98zM482.21 1312.15l-5.13 19.14 14.09 14 65.29-17.44 21.27-5.79L628 1135.22l.31-1.14-14.11-14-19.13 5.26-22.6 84.22-50.68 13.81-5.13 19.16 13.85 14 31.65-8.5-12.38 46.14-67.57 17.98zm8.51 27l-9.08-9.05 3.3-12.3 9.08 9-3.3 12.35zm-2.88-24.23l60.7-16.18-3.3 12.3-48.33 12.91-9.07-9.03zm126.82-188.58l9.08 9-49.35 183.43-12.13 3.31 47.06-175.83 5.34-19.91zm-89.55 100.39l46.11-12.56-3.32 12.4-46.09 12.45 3.3-12.29zm41.86 19.06l.89-3.55-36.14 9.71-8.88-9 47.26-12.78 1.15-.37 27.14-101.13 12.29-3.38-53 198-63 16.83 3.3-12.3 50.6-13.52 18.39-68.51zM1323.27 318.92l-33.82-6.85-241.38 271.36-1.41 1.63 11.84 35.33 36.09 7.25 241-271 1.42-1.6-10.79-33.57-.72-2.13-2.19-.42h-.04zM1055.14 586.8l237.05-266.51 23.17 4.69-252.52 284.8-7.7-22.98zm13.35 27.93l252.54-284.81 7.51 23.33-236.7 266.17-23.35-4.69zM1275.76 1105.6l-11.29-12.43-16.47 3.62-17.47 54.55-5.62 17.82 110.21 121.46.68.74 16.47-3.63 5-16-49.71-54.71 13.37-42.49-11.27-12.47-16.33 3.47-8.45 26.48-27.23-30 18.11-56.41zm-23.1-6.28l10.62-2.33 7.26 8-10.62 2.33-7.26-8zm18.6 9l-16.27 50.71-7.26-8 12.93-40.33 10.6-2.38zm76.35 176.82l-10.63 2.39-108.19-119.26 3.2-10.16 103.82 114.12 11.8 12.91zm-30.59-109.81l-12.17 38.64-7.31-8.05c1.67-5.28 9.54-30.07 12.23-38.57l7.25 7.98zm-32.77 21.12l2.13 2.27 9.64-30.23 10.46-2.22c-3 9.28-12.13 38.24-12.54 39.56l-.27 1 59.69 65.7-3.22 10.32-116.92-128.55 16.86-52.64 7.26 8-13.54 42.29 40.45 44.5zM2778.42 550.99l-450.08 54-2.67.33-18.34 42.21 75.11 100.58 49.71 66.4 67.45 29.16 126.37-15 15.88-36 61.44 26.86 125.83-15 50.54-117.82-101.24-135.72zm-158.88 269L2501 834.06l-62.83-27.17-48.21-64.36-68.62-91.88 431.32-51.24-11.9 27.26-167.86 19.93 52.24 70.31-11.89 27.36-70.83-94-173.23 20.52 29.36 39.51 49.71 66.39 67.45 29.17 116.13-13.79-12.3 27.92zm129.84-189.6l11.87-27.32 67 89.76-11.59 27.7-67.28-90.14zm59.47 95.32l-72 8.54-65-26.34-41.38-58.69L2741.86 636l66.99 89.71zm-203.19 24.11l-72.49 8.61-62.75-26.6-43.43-58.45 111.14-13.2 67.53 89.64zm217 46.05l-117.91 14-59.19-25.89 12-29.08c61.81 26.79 61.84 26.78 63.17 26.63L2834.65 768l-11.99 27.87zm-101.84-23.81c-7.14-3.06-47.71-20.63-64-27.67l-4.39-1.9-16.3 39.62-119 14.13-62.83-27.17-48.21-64.39-19.68-26.48 29.88-3.55 48.17 64.82 67.39 28.57 85.75-10.18 18.33-42.19-45.82-61.66 29.79-3.48 45.89 65 69.79 28.29 85.74-10.19 17.69-42.1-76.7-102.71-442 52.48 11.85-27.28 442-53.06 94.75 127-30 70-118.09 14.1z"/></g></svg>