<?xml version="1.0" encoding="UTF-8"?>
<svg width="2931px" height="1685px" viewBox="0 0 2931 1685" version="1.1" xmlns="http://www.w3.org/2000/svg" xmlns:xlink="http://www.w3.org/1999/xlink">
    <!-- Generator: Sketch 52.2 (67145) - http://www.bohemiancoding.com/sketch -->
    <title>scattered_bif_2</title>
    <desc>Created with Sketch.</desc>
    <g id="scattered_bif_2" stroke="none" stroke-width="1" fill="none" fill-rule="evenodd" fill-opacity="0.25">
        <g transform="translate(0.000000, 268.000000)" fill="#FFFFFF" fill-rule="nonzero" id="Shape">
            <path d="M592.88,150.84 L838.36,386.11 L839.82,387.51 L873.01,378.06 L895.59,286.66 L910.44,226.24 L895.26,173.24 L826.43,107.11 L797.97,115.05 L784.31,66.64 L715.78,0.79 L623.41,27.53 L592.88,150.84 Z M824.45,114.98 L889.01,176.98 L903.15,226.34 L888.75,284.93 L868.13,368.53 L633.23,142.82 L654.68,136.72 L746.11,224.53 L762.02,160.79 L783.54,154.66 L762.71,240.48 L857.06,331.13 L866,295.31 L880.85,234.89 L865.67,181.89 L802.41,121.12 L824.45,114.98 Z M652.74,129.9 L631.25,136.02 L651.4,54.44 L672.97,48.01 L652.74,129.9 Z M679.74,50.07 L718.94,87.74 L734.6,137.96 L720.25,189.88 L659.6,131.6 L679.74,50.07 Z M790.36,156.39 L829.84,194.33 L844.27,243.33 L831.05,296.33 L770.51,238.16 L790.36,156.39 Z M713.84,8.69 L778.06,70.4 L791.21,117.04 L768.66,123.94 C754.78,75.35 754.76,75.34 754.04,74.64 L691.99,15.02 L713.84,8.69 Z M748.49,79.07 C750.11,84.67 759.22,116.55 762.87,129.32 L763.87,132.77 L794.59,123.37 L859.43,185.67 L873.57,235.03 L859.17,293.62 L853.17,317.62 L836.9,301.98 L851.56,243.21 L836.06,190.53 L789.36,145.65 L756.18,155.1 L742.18,211 L725.95,195.41 L741.86,137.82 L725.06,83.9 L678.36,39.02 L645.49,48.82 L622.43,142.17 L863.23,373.53 L841.77,379.63 L600.66,148.58 L629.24,33.2 L684.15,17.28 L748.49,79.07 Z"></path>
            <path d="M1985.82,415.46 L1961.12,439.53 L2049.4,791.81 L2049.94,793.93 L2085.8,804.03 L2112.14,778.28 L2023.93,426.53 L2023.41,424.45 L1989.58,414.45 L1987.43,413.84 L1985.85,415.42 L1985.82,415.46 Z M2056.17,787.87 L1969.46,441.87 L1986.38,425.37 L2079.5,794.43 L2056.17,787.87 Z M2086.77,792.57 L1993.66,423.53 L2017.17,430.46 L2103.81,775.96 L2086.77,792.57 Z"></path>
            <path d="M255.48,671.33 L224.24,665.01 L1.33,915.61 L-1.13686838e-13,917.11 L10.94,949.74 L44.29,956.44 L266.85,706.17 L268.16,704.69 L258.16,673.69 L257.5,671.69 L255.5,671.31 L255.48,671.33 Z M7.85,918.72 L226.78,672.6 L248.17,676.93 L14.97,939.93 L7.85,918.72 Z M20.19,944.53 L253.41,681.53 L260.34,703.08 L41.75,948.85 L20.19,944.53 Z"></path>
            <path d="M2844.23,668.61 L2829.29,670.1 L2763.74,813.93 L2763.35,814.79 L2772.81,827.96 L2788.76,826.34 L2854.19,682.71 L2854.58,681.86 L2845.78,669.29 L2845.21,668.5 L2844.21,668.6 L2844.23,668.61 Z M2767.07,814.42 L2831.45,673.17 L2841.68,672.17 L2773.26,822.99 L2767.07,814.42 Z M2776.21,824.32 L2844.67,673.47 L2850.79,682.21 L2786.56,823.28 L2776.21,824.32 Z"></path>
            <path d="M1049.66,773.01 L1038.07,763.53 L890.02,818.88 L889.13,819.21 L886.51,835.21 L898.93,845.34 L1046.76,790.03 L1047.64,789.71 L1050.31,774.59 L1050.47,773.59 L1049.71,772.98 L1049.66,773.01 Z M892.05,821.54 L1037.46,767.23 L1045.46,773.74 L890.39,831.99 L892.05,821.54 Z M891.51,835.01 L1046.6,776.75 L1044.74,787.26 L899.54,841.56 L891.51,835.01 Z"></path>
            <path d="M1938.93,979.17 L1972.18,970.81 L1981.51,937.68 L1900.14,853.68 L1900.23,853.68 L1873.55,826.41 L1548.82,907.88 L1546.82,908.37 L1537.5,941.53 L1561.57,966.01 L1707.91,929.2 L1771.47,994.2 L1804.69,985.85 L1814.15,953.14 L1774.66,912.42 L1854.82,892.25 L1938.93,979.17 Z M1972.49,943.6 L1966.49,964.95 L1945.12,970.33 L1951.12,948.97 L1972.49,943.6 Z M1938.31,968.37 L1862.71,890.26 L1884.08,884.89 L1944.32,947.05 L1938.31,968.37 Z M1546.52,935.59 L1552.52,914.25 L1871.33,834.25 L1886.54,849.8 L1581.16,926.8 L1546.52,935.59 Z M1773.66,986.32 L1715.83,927.2 L1737.36,921.79 L1795.02,980.94 L1773.66,986.32 Z M1767.19,906.99 L1761.08,908.64 L1806.2,955.08 L1800.13,976.08 C1786.26,961.84 1742.97,917.44 1741,915.42 L1739.46,913.99 L1563.76,958.19 L1548.28,942.46 L1892.21,855.72 L1970.73,936.72 L1949.37,942.1 L1886.3,877.01 L1767.19,906.99 Z"></path>
            <path d="M482.21,1044.15 L477.08,1063.29 L491.17,1077.29 L556.46,1059.85 L577.73,1054.06 L628,867.22 L628.31,866.08 L614.2,852.08 L595.07,857.34 L572.47,941.56 L521.79,955.37 L516.66,974.53 L530.51,988.53 L562.16,980.03 L549.78,1026.17 L482.21,1044.15 Z M490.72,1071.15 L481.64,1062.1 L484.94,1049.8 L494.02,1058.8 L490.72,1071.15 Z M487.84,1046.92 L548.54,1030.74 L545.24,1043.04 L496.91,1055.95 L487.84,1046.92 Z M614.66,858.34 L623.74,867.34 L574.39,1050.77 L562.26,1054.08 L609.32,878.25 L614.66,858.34 Z M525.11,958.73 L571.22,946.17 L567.9,958.57 L521.81,971.02 L525.11,958.73 Z M566.97,977.79 L567.86,974.24 L531.72,983.95 L522.84,974.95 L570.1,962.17 L571.25,961.8 L598.39,860.67 L610.68,857.29 L557.68,1055.29 L494.68,1072.12 L497.98,1059.82 L548.58,1046.3 L566.97,977.79 Z"></path>
            <path d="M1323.27,50.92 L1289.45,44.07 L1048.07,315.43 L1046.66,317.06 L1058.5,352.39 L1094.59,359.64 L1335.59,88.64 L1337.01,87.04 L1326.22,53.47 L1325.5,51.34 L1323.31,50.92 L1323.27,50.92 Z M1055.14,318.8 L1292.19,52.29 L1315.36,56.98 L1062.84,341.78 L1055.14,318.8 Z M1068.49,346.73 L1321.03,61.92 L1328.54,85.25 L1091.84,351.42 L1068.49,346.73 Z"></path>
            <path d="M1275.76,837.6 L1264.47,825.17 L1248,828.79 L1230.53,883.34 L1224.91,901.16 L1335.12,1022.62 L1335.8,1023.36 L1352.27,1019.73 L1357.27,1003.73 L1307.56,949.02 L1320.93,906.53 L1309.66,894.06 L1293.33,897.53 L1284.88,924.01 L1257.65,894.01 L1275.76,837.6 Z M1252.66,831.32 L1263.28,828.99 L1270.54,836.99 L1259.92,839.32 L1252.66,831.32 Z M1271.26,840.32 L1254.99,891.03 L1247.73,883.03 L1260.66,842.7 L1271.26,840.32 Z M1347.61,1017.14 L1336.98,1019.53 L1228.79,900.27 L1231.99,890.11 L1335.81,1004.23 L1347.61,1017.14 Z M1317.02,907.33 L1304.85,945.97 L1297.54,937.92 C1299.21,932.64 1307.08,907.85 1309.77,899.35 L1317.02,907.33 Z M1284.25,928.45 L1286.38,930.72 L1296.02,900.49 L1306.48,898.27 C1303.48,907.55 1294.35,936.51 1293.94,937.83 L1293.67,938.83 L1353.36,1004.53 L1350.14,1014.85 L1233.22,886.3 L1250.08,833.66 L1257.34,841.66 L1243.8,883.95 L1284.25,928.45 Z"></path>
            <path d="M2778.42,282.99 L2328.34,336.99 L2325.67,337.32 L2307.33,379.53 L2382.44,480.11 L2432.15,546.51 L2499.6,575.67 L2625.97,560.67 L2641.85,524.67 L2703.29,551.53 L2829.12,536.53 L2879.66,418.71 L2778.42,282.99 Z M2619.54,551.99 L2501,566.06 L2438.17,538.89 L2389.96,474.53 L2321.34,382.65 L2752.66,331.41 L2740.76,358.67 L2572.9,378.6 L2625.14,448.91 L2613.25,476.27 L2542.42,382.27 L2369.19,402.79 L2398.55,442.3 L2448.26,508.69 L2515.71,537.86 L2631.84,524.07 L2619.54,551.99 Z M2749.38,362.39 L2761.25,335.07 L2828.25,424.83 L2816.66,452.53 L2749.38,362.39 Z M2808.85,457.71 L2736.85,466.25 L2671.85,439.91 L2630.47,381.22 L2741.86,368 L2808.85,457.71 Z M2605.66,481.82 L2533.17,490.43 L2470.42,463.83 L2426.99,405.38 L2538.13,392.18 L2605.66,481.82 Z M2822.66,527.87 L2704.75,541.87 L2645.56,515.98 L2657.56,486.9 C2719.37,513.69 2719.4,513.68 2720.73,513.53 L2834.65,500 L2822.66,527.87 Z M2720.82,504.06 C2713.68,501 2673.11,483.43 2656.82,476.39 L2652.43,474.49 L2636.13,514.11 L2517.13,528.24 L2454.3,501.07 L2406.09,436.68 L2386.41,410.2 L2416.29,406.65 L2464.46,471.47 L2531.85,500.04 L2617.6,489.86 L2635.93,447.67 L2590.11,386.01 L2619.9,382.53 L2665.79,447.53 L2735.58,475.82 L2821.32,465.63 L2839.01,423.53 L2762.31,320.82 L2320.31,373.3 L2332.16,346.02 L2774.16,292.96 L2868.91,419.96 L2838.91,489.96 L2720.82,504.06 Z"></path>
        </g>
    </g>
</svg>