<svg width="2931" height="1685" viewBox="0 0 2931 1685" xmlns="http://www.w3.org/2000/svg"><g fill="#FFF" fill-rule="nonzero" fill-opacity=".2"><path d="M2275.11 1575.53l-163.7-298-1-1.77-34.5-.93-48.93 80.43-32.27 53.19-1.4 55.1 45.85 83.73 29.53 1-1.48 50.28 45.65 83.36 96.14 2.14 66.11-108.53zm-231.68-35.18l-43-78.53 1.3-51.33 31.29-51.59 44.71-73.49 156.46 285.73-22.3-.6-60.89-111.22-34.28 56-22.37-.61 45.59-75.63-62.85-114.77-19.26 31.5-32.27 53.19-1.39 55.1 42.13 76.94-22.87-.69zm168.29 37.18l22.34.61-43.67 71.79-22.51-.33 43.84-72.07zm-49.65 68.09l-26.12-47.7.12-52.6 29.24-45.23 40.4 73.78-43.64 71.75zm-73.71-134.6l-26.29-48 .92-51.11 28.51-46.6 40.32 73.64-43.46 72.07zm28.75 163.84l-42.78-78.12 1.43-48.43 23.58.18c-1.31 50.5-1.3 50.52-.82 51.41l41.33 75.47-22.74-.51zm-12-77.53c.13-5.82 1-39 1.33-52.25l.1-3.58-32.13-.24-43.19-78.87 1.3-51.33 31.29-51.58 12.92-21.11 10.84 19.79-31.61 51.68-1 54.89 31.1 56.81 34.5.93 30.1-49.16 10.81 19.75-32.43 50.17-.13 56.48 31.1 56.8 34.3.51 50-82.15-160.39-292.86 22.3.61 160.75 292.68-61.84 101.52-57.16-1.28-42.86-78.21zM1764.8 569.81l-60.42-132.9-.36-.79-14.74-1.52-23.56 32.85-15.54 21.73-2.38 23.55 16.91 37.32 12.62 1.37-2.27 21.48 16.84 37.17 41.09 4 31.81-44.26zm-98-22.57l-15.86-35 2.22-21.93 15.07-21.07 21.52-30 57.72 127.4-9.52-1-22.47-49.59-16.49 22.89-9.56-1 22-30.9-23.18-51.17-9.27 12.86-15.54 21.72-2.39 23.55 15.55 34.3-9.8-1.06zm70.85 21.39l9.54 1-21 29.32-9.62-.87 21.08-29.45zm-23.47 27.54l-9.63-21.27 1.75-22.52 14-18.41 14.9 32.89-21.02 29.31zm-27.19-60l-9.7-21.41 2.05-21.85 13.71-19 14.88 32.83-20.94 29.43zm7 71.08l-15.78-34.83 2.18-20.69 10.09.84c-2.2 21.58-2.19 21.59-2 22l15.18 33.61-9.67-.93zm-2.61-33.58c.25-2.49 1.69-16.66 2.27-22.33l.15-1.53-13.74-1.14-16-35.14 2.22-21.93 15.07-21.07 6.22-8.62 4 8.83-15.21 21.1-2.21 23.46 11.51 25.28 14.74 1.52 14.46-20.07 4 8.81-15.51 20.42-1.89 24.18 11.48 25.33 14.66 1.33 24.06-33.57-59.2-130.56 9.53 1 59.33 130.52-29.76 41.43-24.44-2.39-15.74-34.86zM1590.95 1525.68l198.09 11.27 1.18.07 11.14-16.78-24.64-49.1-16.33-32.43-26.82-17.75-55.61-3.23-9.61 14.31-24.42-16.29-55.36-3.22-30.83 46.9 33.21 66.25zm89.11-103.72l52.16 3 25 16.53 15.83 31.45 22.52 44.86-189.77-11 7.19-10.84 73.87 4.3-17.11-34.31 7.22-10.88 23.3 46 76.23 4.43-9.62-19.28-16.32-32.42-26.83-17.75-51.1-3 7.43-11.09zm-70.5 71.73l-7.22 10.84-22-43.82 7.13-11 22.09 43.98zm-18.31-45.63l31.67 1.84 26 16.34 13.32 28.47-49-2.85-21.99-43.8zm89.4 5.2l31.89 1.86 25 16.28 14.23 28.52-48.91-2.85-22.21-43.81zm-89.99-36.5l51.88 3 23.52 15.7-7.39 11.61c-24.58-16.28-24.59-16.28-25.18-16.32l-50.12-2.92 7.29-11.07zm42.05 18.08l25.44 16.83 1.74 1.16 10.07-15.82 52.38 3 25 16.53 15.83 31.45 6.45 12.92-13.15-.77-15.75-31.61-26.85-17.48-37.73-2.2-11.14 16.78 15 30.08-13.11-.76-14.78-31.57-27.9-17.55-37.73-2.2-10.82 16.84 25.17 50.15 194.51 11.32-7.2 10.84-194.58-11.07-31.08-62 18.32-27.88 51.91 3.01zM2378.54 1237.02l-21.13 16.76 40.58 280.91.24 1.69 27.08 10.71 22.52-17.92-40.55-280.51-.24-1.66-25.5-10.47-1.63-.65-1.35 1.1-.02.04zm25.02 295.13l-39.85-275.89 14.47-11.48 43 294.34-17.62-6.97zm23.42 6.09l-43-294.36 17.73 7.26 39.83 275.51-14.56 11.59zM679.07 826.76l9.9-18.93-119.72-190.3-.72-1.14-23 1-10.54 20.22 119.57 190 .71 1.13 21.82-.64 1.39-.05.62-1.24-.03-.05zM566.1 621.21l117.56 186.83-6.78 13-125.84-199.25 15.06-.58zm-18.91 3.13l125.73 199.19-15.17.44-117.44-186.6 6.88-13.03zM824.66 1199.07l-35-3.65-20.7 28.71 49 109.8h-.09l16.15 35.74 342.31 35.86 2.1.22 20.7-28.72-14.62-32.13-154.32-16.06-38.47-85.17-35-3.64-20.67 28.25 23.78 53.25-84.53-8.8-50.64-113.66zm-45 22.52l13.33-18.5 22.54 2.35-13.33 18.5-22.54-2.35zm41.74-11.86l45.48 102.1-22.47-2.3-36.25-81.28 13.24-18.52zm366.93 169.8l-13.34 18.49-336.12-35.2-9.21-20.29 322.12 33.31 36.55 3.69zm-201.52-129.07l35 77.49-22.7-2.37c-4.77-10.6-27.16-60.4-34.83-77.47l22.53 2.35zm-21.73 78.89l6.49.57-27.2-60.77 13.29-18.12c8.38 18.64 34.53 76.79 35.71 79.44l1 1.93 185.29 19.28 9.39 20.64-362.77-37.53-47.25-106 22.53 2.34 38 85.11 125.52 13.11zM184.33 645.77l-1.55-22.91-20.71-10.09-65 43.59v-.06L75.9 670.63l15 223.66.09 1.37 20.73 10.1 19-12.94-6.81-100.8 50.38-34.14-1.63-22.88-20.42-10.14-31.52 21.2-3.73-55.22 67.34-45.07zm-19.44-26.36l13.35 6.51 1 14.72-13.35-6.5-1-14.73zm12.25 25.47l-60.48 40.5-1-14.72 48.14-32.27 13.34 6.49zm-68.3 254.23l-13.35-6.51L80.8 673.03l12.07-8.18 14.34 210.39 1.63 23.87zm60.5-143.58l-45.84 31-1-14.83 45.84-30.94 1 14.77zm-53-5.19l.32 4.19 36-24.19 13.09 6.5-47 31.72-1.13.85 8.18 121-12.21 8.32-16.17-236.92 62.75-42.07 1 14.72-50.4 33.79 5.57 82.09zM966.02 876.06l213.36 87 1.26.51 18.56-14.23-8.54-63.21-5.71-41.77-22.78-29.6-59.87-24.51-15.95 12.11-20.69-27.1-59.6-24.4-51.53 39.9 11.49 85.3zm137-80.36l56.15 23 21.22 27.57 5.54 40.51 7.83 57.76-204.29-83.63 12-9.19 79.52 32.55-5.88-44.13 12-9.23 8.29 59.27 82.05 33.59-3.3-24.8-5.71-41.77-22.78-29.61-55-22.52 12.36-9.37zm-104.51 52.23l-12 9.21-7.65-56.42 12-9.43 7.65 56.64zm-2.91-57l34.1 14 22.39 27.74 3.91 36.29-52.76-21.6-7.64-56.43zm96.24 39.4l34.33 14 21.33 27.3 4.88 36.7-52.65-21.56-7.89-56.44zm-85.06-74l55.88 22.85 19.92 26.11-12.49 10c-20.87-27.15-20.88-27.15-21.51-27.41l-54-22.09 12.2-9.46zm39.39 35.7c2.42 3.12 16.11 20.94 21.59 28.07l1.49 1.93 17-13.59 56.41 23.09 21.23 27.57 5.53 40.51 2.22 16.62-14.16-5.79-5.41-40.69-22.91-29.32-40.61-16.63-18.56 14.23 5.15 38.7-14.11-5.78-4.37-40.26-24-29.78-40.62-16.63-18.26 14.37 8.75 64.57 209.39 85.72-12 9.19-209.53-85.45-10.73-79.83 30.63-23.72 55.88 22.9zM1998.01 324.94l-12 11.87 44.65 171.72.27 1 17.57 4.79 12.75-12.69-44.59-171.44-.27-1-16.56-4.74-1.06-.29-.76.78zm35.9 181.66l-43.8-168.66 8.2-8.13 47 179.9-11.4-3.11zm15 2.17l-47-179.92 11.52 3.29 43.71 168.39-8.23 8.24zM1513.41 49.9l-52.23 359.2-.31 2.14 28.79 23 93.43-37.05 61.71-24.56 36.63-46.1 14.79-100.82-24.56-19.77 33.61-41.89L1720 63.67 1639.46 0l-126.05 49.9zm174.76 179l-13.88 94.57-34.13 42.89-59.84 23.82-85.36 33.86 50.49-344.08 18.61 14.86-19.66 133.92 65.26-25.7 18.67 14.91-87.5 35.11-20.27 138.2 36.67-14.44 61.71-24.56 36.63-46.05 13.59-92.68 19.01 15.37zm-119.44-140l-18.64-14.88 83.38-33.07 19 14.75-83.74 33.2zm86.1-26.06l-8.43 57.43-33.94 44.74-54 19.73 13-88.85 83.37-33.05zm-23.79 162.08l-8.48 57.83-33.67 42.95-54.23 21.4 13-88.67 83.38-33.51zm80.9-158.08l-13.8 94.07-32.37 40.35-20-15.32c33.61-42.19 33.61-42.21 33.77-43.27l13.34-90.89 19.06 15.06zm-39.67 73.75c-3.86 4.88-25.91 32.57-34.75 43.66l-2.38 3 27.22 20.88-13.94 95-34.12 42.9-59.84 23.8-24.58 9.7 3.49-23.83 60.17-23.7 36.12-46.15 10-68.41-28.79-23-57.23 22.54 3.49-23.78 59.91-21.88 36.44-48 10-68.4-28.82-22.51-95.42 37.85-51.75 352.65-18.6-14.86 51.3-352.76 118-46.71 47.88 37.85-13.8 94.16z"/></g></svg>