<?xml version="1.0" encoding="UTF-8"?>
<svg width="299px" height="172px" viewBox="0 0 299 172" version="1.1" xmlns="http://www.w3.org/2000/svg" xmlns:xlink="http://www.w3.org/1999/xlink">
    <!-- Generator: Sketch 52.3 (67297) - http://www.bohemiancoding.com/sketch -->
    <title>scattered_bif_1</title>
    <desc>Created with Sketch.</desc>
    <g id="scattered_bif_1" stroke="none" stroke-width="1" fill="none" fill-rule="evenodd" fill-opacity="0.12">
        <g transform="translate(7.804534, 0.000000)" fill="#FFFFFF" fill-rule="nonzero" id="Shape">
            <path d="M224.196772,160.550491 L207.515328,130.183537 L207.413425,130.00317 L203.897788,129.9084 L198.911697,138.104421 L195.623303,143.524616 L195.480639,149.139445 L200.15287,157.671744 L203.162052,157.773647 L203.011236,162.897306 L207.663087,171.391901 L217.459996,171.609972 L224.196772,160.550491 Z M200.587994,156.96556 L196.206185,148.963154 L196.338659,143.732497 L199.527189,138.475346 L204.083251,130.986529 L220.02692,160.103139 L217.754494,160.041997 L211.549649,148.708398 L208.05643,154.414939 L205.776871,154.352779 L210.422607,146.645891 L204.018033,134.950537 L202.05539,138.160467 L198.766996,143.580663 L198.625351,149.195492 L202.918505,157.035872 L200.587994,156.96556 Z M217.737171,160.754296 L220.013673,160.816456 L215.56359,168.132039 L213.269764,168.098411 L217.737171,160.754296 Z M212.67771,167.692839 L210.016016,162.832088 L210.028244,157.472015 L213.007874,152.862964 L217.124736,160.381332 L212.67771,167.692839 Z M205.166475,153.976759 L202.487457,149.085437 L202.581207,143.877199 L205.486449,139.128541 L209.595159,146.632643 L205.166475,153.976759 Z M208.096172,170.672469 L203.736782,162.711843 L203.882503,157.776704 L206.285364,157.795046 C206.151872,162.941124 206.152891,162.943162 206.201804,163.033855 L210.413436,170.724439 L208.096172,170.672469 Z M206.873342,162.771966 C206.886589,162.178893 206.975245,158.797767 207.008872,157.447559 L207.019063,157.082748 L203.744934,157.058291 L199.343764,149.021239 L199.476237,143.790582 L202.664768,138.534449 L203.981348,136.383287 L205.085972,138.399938 L201.864833,143.666261 L201.76293,149.25969 L204.932099,155.048773 L208.447736,155.143542 L211.515002,150.134014 L212.616568,152.146589 L209.311869,157.259039 L209.298622,163.014494 L212.467791,168.802557 L215.963048,168.854528 L221.058174,160.483235 L204.714027,130.64006 L206.986454,130.702221 L223.367285,160.527053 L217.065633,170.872198 L211.240884,170.741762 L206.873342,162.771966 Z"></path>
            <path d="M172.194893,58.0650797 L166.037942,44.5222337 L166.001257,44.4417307 L164.499214,44.2868389 L162.09839,47.6343369 L160.514825,49.8486789 L160.272297,52.2484834 L161.995468,56.0514858 L163.281478,56.1910922 L163.05016,58.3799585 L164.766198,62.1676755 L168.953373,62.5752856 L172.194893,58.0650797 Z M162.208445,55.7651397 L160.592271,52.1985512 L160.818494,49.9638287 L162.354165,47.8167424 L164.547108,44.7596666 L170.428922,57.7420487 L169.45881,57.6401462 L167.16906,52.5867998 L165.488687,54.9193487 L164.514499,54.8174461 L166.756355,51.668658 L164.394254,46.4543056 L163.449618,47.7647721 L161.866052,49.9780951 L161.622505,52.3778996 L163.20709,55.8731563 L162.208445,55.7651397 Z M169.428239,57.9448347 L170.400389,58.0467373 L168.260436,61.0345194 L167.280134,60.9458642 L169.428239,57.9448347 Z M167.036587,60.7512304 L166.055265,58.5837636 L166.233595,56.2889187 L167.66023,54.4128931 L169.178578,57.7644673 L167.036587,60.7512304 Z M164.265857,54.6370787 L163.277402,52.4553455 L163.486302,50.2287753 L164.883386,48.2926272 L166.399696,51.6380873 L164.265857,54.6370787 Z M164.979174,61.8803104 L163.371153,58.3310453 L163.5933,56.222682 L164.621497,56.3082801 C164.397311,58.5073367 164.39833,58.5083557 164.417692,58.5501358 L165.964572,61.9750797 L164.979174,61.8803104 Z M164.713209,58.4584235 C164.738685,58.2046862 164.885424,56.7607274 164.944528,56.18294 L164.959813,56.0270292 L163.559672,55.9108603 L161.929232,52.3300054 L162.155455,50.095283 L163.691127,47.9481967 L164.32496,47.0697969 L164.73257,47.9695962 L163.182633,50.1197396 L162.957428,52.5103729 L164.130326,55.0864688 L165.63237,55.2413607 L167.10588,53.1961769 L167.51349,54.0939382 L165.932982,56.1747878 L165.740386,58.638791 L166.910227,61.219982 L168.404118,61.3555124 L170.855893,57.9346445 L164.823264,44.6302504 L165.794395,44.7321529 L171.840272,58.0324709 L168.807652,62.2542927 L166.317155,62.0107456 L164.713209,58.4584235 Z"></path>
            <path d="M154.479138,155.47065 L174.66501,156.619091 L174.785255,156.626224 L175.920449,154.9163 L173.409571,149.912886 L171.745502,146.608187 L169.012477,144.799417 L163.345677,144.470272 L162.366394,145.928497 L159.877934,144.268505 L154.23661,143.940378 L151.094955,148.719607 L154.479138,155.47065 Z M163.559672,144.901319 L168.874908,145.207027 L171.422471,146.891476 L173.035588,150.09631 L175.330433,154.667658 L155.992391,153.54673 L156.72507,152.442106 L164.252609,152.880287 L162.509057,149.384012 L163.244793,148.275312 L165.619122,152.962828 L173.387152,153.414257 L172.40685,151.449576 L170.743801,148.145896 L168.009756,146.337126 L162.802536,146.031418 L163.559672,144.901319 Z M156.375544,152.210788 L155.639808,153.315411 L153.397952,148.850042 L154.124517,147.729114 L156.375544,152.210788 Z M154.509709,147.560975 L157.736962,147.748476 L160.386428,149.413563 L161.743769,152.314728 L156.750545,152.024306 L154.509709,147.560975 Z M163.619795,148.090868 L166.869466,148.280407 L169.41703,149.93938 L170.867103,152.84564 L165.88305,152.555218 L163.619795,148.090868 Z M154.449586,144.371426 L159.736289,144.677134 L162.133037,146.277003 L161.379977,147.460092 C158.875213,145.801119 158.874194,145.801119 158.814072,145.797043 L153.706717,145.499487 L154.449586,144.371426 Z M158.734588,146.213824 L161.326988,147.928843 L161.504298,148.04705 L162.530457,146.434952 L167.868111,146.74066 L170.415674,148.425109 L172.028791,151.629943 L172.686063,152.946524 L171.346044,152.868059 L169.74108,149.64692 L167.004997,147.865664 L163.160214,147.641478 L162.02502,149.351403 L163.553558,152.416631 L162.217616,152.339185 L160.711497,149.122122 L157.868416,147.333733 L154.023634,147.109547 L152.921048,148.825586 L155.485935,153.935997 L175.306996,155.089534 L174.573298,156.194158 L154.745104,155.066097 L151.577973,148.74814 L153.444827,145.907097 L158.734588,146.213824 Z"></path>
            <path d="M234.73655,126.055466 L232.58335,127.763352 L236.718555,156.388791 L236.743011,156.561007 L239.502532,157.652383 L241.797377,155.826289 L237.665229,127.241611 L237.640772,127.072453 L235.042258,126.005533 L234.876157,125.939297 L234.738588,126.05139 L234.73655,126.055466 Z M237.286152,156.129959 L233.225336,128.01607 L234.699865,126.846229 L239.081674,156.84022 L237.286152,156.129959 Z M239.672709,156.750545 L235.2909,126.754517 L237.097632,127.494329 L241.15641,155.569495 L239.672709,156.750545 Z"></path>
            <path d="M61.5562603,84.2489344 L62.5650954,82.3199195 L50.3653247,62.9278684 L50.2919549,62.8116995 L47.9481967,62.913602 L46.8741441,64.9740711 L59.0586294,84.3355516 L59.1309802,84.4507014 L61.3544933,84.3854838 L61.4961379,84.3803887 L61.5593174,84.2540295 L61.5562603,84.2489344 Z M50.0443317,63.3028697 L62.023993,82.3413191 L61.3330938,83.6660519 L48.5096796,63.3619731 L50.0443317,63.3028697 Z M48.1173549,63.6218246 L60.9295598,83.9197892 L59.3836984,83.9646263 L47.4162655,64.9496145 L48.1173549,63.6218246 Z"></path>
            <path d="M76.3922495,122.188265 L72.825661,121.816321 L70.7162786,124.741942 L75.7095025,135.93084 L75.7003313,135.93084 L77.3460571,139.572836 L112.228312,143.227061 L112.442307,143.249479 L114.551689,140.322839 L113.061874,137.04871 L97.3362761,135.412156 L93.4160859,126.733118 L89.8494974,126.362192 L87.7431721,129.240939 L90.1664142,134.667248 L81.5525935,133.770506 L76.3922495,122.188265 Z M71.8066357,124.48311 L73.1649964,122.597913 L75.4618794,122.837384 L74.1035187,124.722581 L71.8066357,124.48311 Z M76.0600472,123.274546 L80.6945742,133.678794 L78.4048244,133.444418 L74.7108577,125.161781 L76.0600472,123.274546 Z M113.451142,140.577595 L112.091762,142.461773 L77.8402844,138.874804 L76.9017621,136.807201 L109.726605,140.201575 L113.451142,140.577595 Z M92.9157444,127.425036 L96.4823329,135.321463 L94.1691455,135.079954 C93.6830705,133.999787 91.4014729,128.925041 90.6198805,127.185565 L92.9157444,127.425036 Z M90.7014025,135.464126 L91.3627499,135.522211 L88.5910011,129.329594 L89.9452857,127.48312 C90.7992289,129.382583 93.46398,135.308215 93.584225,135.578257 L93.6861276,135.774929 L112.567647,137.73961 L113.524512,139.842878 L76.5573316,136.018476 L71.7424371,125.216808 L74.0383011,125.45526 L77.9105971,134.128184 L90.7014025,135.464126 Z"></path>
            <path d="M11.1410034,65.8055958 L10.9830545,63.4710089 L8.87265315,62.4428123 L2.2489888,66.8847436 L2.2489888,66.8786294 L0.0917122756,68.3388926 L1.6202502,91.1304121 L1.62942143,91.2700186 L3.74186084,92.2992341 L5.67800888,90.9806154 L4.98405267,80.7088406 L10.117902,77.2298882 L9.95180093,74.8983584 L7.8709513,73.8650668 L4.6589836,76.0254004 L4.27888717,70.3983427 L11.1410034,65.8055958 Z M9.16001828,63.1194451 L10.520417,63.7828306 L10.6223196,65.2828358 L9.26192081,64.6204694 L9.16001828,63.1194451 Z M10.4083243,65.7149025 L4.24525933,69.8419549 L4.14335681,68.3419497 L9.04894452,65.0535551 L10.4083243,65.7149025 Z M3.44838156,91.6215823 L2.08798281,90.9581969 L0.591034665,68.5834587 L1.82099818,67.749896 L3.28228044,89.189169 L3.44838156,91.6215823 Z M9.61348453,76.9904173 L4.94227263,80.1493957 L4.8403701,78.6381812 L9.511582,75.485317 L9.61348453,76.9904173 Z M4.21265053,76.4615432 L4.24525933,76.8885148 L7.91375036,74.4234926 L9.24765445,75.085859 L4.45823562,78.3182072 L4.34308576,78.4048244 L5.17664844,90.7350303 L3.93241857,91.5828594 L2.28465469,67.4401123 L8.67903835,63.153073 L8.78094087,64.6530782 L3.64505344,68.0963646 L4.21265053,76.4615432 Z"></path>
            <path d="M90.7971909,89.2727291 L112.539114,98.138249 L112.667512,98.1902193 L114.558822,96.7401463 L113.688575,90.2988875 L113.106711,86.0424189 L110.785372,83.0261041 L104.684467,80.5284731 L103.059122,81.7625127 L100.950759,79.0009542 L94.8773681,76.5145325 L89.6263308,80.5804434 L90.7971909,89.2727291 Z M104.757837,81.0838419 L110.479664,83.4276 L112.642036,86.2370527 L113.206576,90.3651242 L114.004473,96.2510142 L93.1868052,87.7289057 L94.4096355,86.7924215 L102.512925,90.1093488 L101.913738,85.6123902 L103.136568,84.6718299 L103.98134,90.7115928 L112.342442,94.1344987 L112.006164,91.607316 L111.424301,87.3508474 L109.102961,84.3335135 L103.498322,82.0386686 L104.757837,81.0838419 Z M94.108004,86.4062109 L92.8851737,87.3447332 L92.1056193,81.5953926 L93.3284497,80.6344517 L94.108004,86.4062109 Z M93.8114677,80.5977668 L97.2863439,82.0244022 L99.5679415,84.8511783 L99.9663804,88.5492211 L94.590003,86.3481265 L93.8114677,80.5977668 Z M103.618567,84.6127264 L107.116881,86.0393618 L109.290462,88.8213009 L109.787746,92.5611236 L104.422578,90.3641051 L103.618567,84.6127264 Z M94.9507379,77.0719393 L100.645051,79.4004121 L102.67495,82.0610871 L101.402187,83.0801124 C99.2754812,80.3134588 99.2744622,80.3134588 99.2102636,80.2869641 L93.7075271,78.0359372 L94.9507379,77.0719393 Z M98.9646785,80.7098596 C99.2112827,81.0277955 100.606328,82.8436985 101.164754,83.5702636 L101.316589,83.7669354 L103.048932,82.3820801 L108.797253,84.7350095 L110.960644,87.5444622 L111.524165,91.6725336 L111.750389,93.3661536 L110.307449,92.776138 L109.756156,88.6297241 L107.421569,85.641942 L103.283308,83.9473029 L101.391997,85.3973759 L101.916795,89.3410037 L100.47895,88.7520071 L100.033636,84.6494113 L97.5879754,81.614754 L93.4486947,79.920115 L91.5879545,81.3844543 L92.4796016,87.9643006 L113.816972,96.6993853 L112.594142,97.6358696 L91.2425049,88.9282985 L90.1490908,80.7934197 L93.2703652,78.3762917 L98.9646785,80.7098596 Z"></path>
            <path d="M195.959581,33.1122076 L194.736751,34.3217906 L199.286699,51.8204928 L199.314212,51.9223953 L201.10464,52.4105084 L202.403897,51.1173653 L197.860063,33.6471959 L197.83255,33.5452933 L196.145044,33.0622753 L196.037027,33.0327236 L195.959581,33.1122076 Z M199.617882,51.6238209 L195.154551,34.4369405 L195.990152,33.6084729 L200.779571,51.9407378 L199.617882,51.6238209 Z M201.14642,51.8449494 L196.357001,33.5106465 L197.530918,33.8459058 L201.985078,51.0052726 L201.14642,51.8449494 Z"></path>
            <path d="M146.577616,5.08493617 L141.255247,41.6883244 L141.223657,41.9063958 L144.157431,44.2501539 L153.678184,40.4746653 L159.966589,37.9719392 L163.699279,33.2742326 L165.206417,23.0004197 L162.703691,20.9858067 L166.128635,16.7171098 L167.629659,6.48813398 L159.42243,1.13686838e-13 L146.577616,5.08493617 Z M164.386102,23.3254888 L162.971695,32.9624109 L159.493761,37.3330103 L153.395914,39.7603285 L144.697514,43.2107482 L149.842573,8.14812617 L151.738979,9.66239775 L149.735575,23.3091844 L156.385734,20.6902894 L158.288254,22.2096561 L149.371783,25.7874538 L147.306219,39.8703833 L151.042985,38.3989108 L157.33139,35.8961847 L161.064079,31.2035732 L162.448935,21.7592469 L164.386102,23.3254888 Z M152.214864,9.05913478 L150.315401,7.54282515 L158.812033,4.17290854 L160.748182,5.67597083 L152.214864,9.05913478 Z M160.988671,6.40355489 L160.129633,12.2558171 L156.671061,16.8149362 L151.168325,18.8254731 L152.493058,9.77143345 L160.988671,6.40355489 Z M158.56441,22.9199167 L157.700277,28.8129399 L154.269219,33.1896535 L148.743045,35.3703676 L150.067778,26.3346704 L158.56441,22.9199167 Z M166.808325,6.811165 L165.40207,16.3971358 L162.103485,20.5089029 L160.065435,18.9477561 C163.490379,14.6484885 163.490379,14.6464504 163.506683,14.5384337 L164.866063,5.27651292 L166.808325,6.811165 Z M162.765852,14.3264765 C162.372508,14.8237608 160.125557,17.6454418 159.224739,18.7755409 L158.982211,19.0812484 L161.755998,21.2089732 L160.335476,30.8897134 L156.858562,35.2613319 L150.760715,37.6866121 L148.255951,38.6750666 L148.61159,36.2467294 L154.743066,33.8316394 L158.423785,29.1288378 L159.44281,22.1576858 L156.509036,19.8139276 L150.677155,22.1108106 L151.032794,19.6875685 L157.137775,17.4579412 L160.851103,12.5666198 L161.870128,5.59648686 L158.933297,3.30266095 L149.209758,7.15967165 L143.936302,43.0955983 L142.040915,41.5813267 L147.268515,5.6341908 L159.293013,0.874323694 L164.172106,4.73133439 L162.765852,14.3264765 Z"></path>
        </g>
    </g>
</svg>