<?xml version="1.0" encoding="UTF-8"?>
<svg width="2931px" height="1685px" viewBox="0 0 2931 1685" version="1.1" xmlns="http://www.w3.org/2000/svg" xmlns:xlink="http://www.w3.org/1999/xlink">
    <!-- Generator: Sketch 52.2 (67145) - http://www.bohemiancoding.com/sketch -->
    <title>scattered_bif_3</title>
    <desc>Created with Sketch.</desc>
    <g id="scattered_bif_3" stroke="none" stroke-width="1" fill="none" fill-rule="evenodd" fill-opacity="0.25">
        <g id="scatarred_bif_3" transform="translate(360.000000, 157.000000)" fill="#FFFFFF" fill-rule="nonzero">
            <path d="M1868.09,145.43 L1841.51,328.24 L1841.35,329.32 L1856,341.02 L1903.55,322.16 L1934.95,309.66 L1953.6,286.23 L1961.12,234.92 L1948.66,224.84 L1965.76,203.53 L1973.26,152.44 L1932.26,120.03 L1868.09,145.43 Z M1957.02,236.53 L1949.96,284.67 L1932.59,306.53 L1902.14,318.65 L1858.66,335.84 L1884.35,160.73 L1893.82,168.29 L1883.82,236.45 L1917.03,223.37 L1926.53,230.95 L1882,248.82 L1871.68,319.16 L1890.35,311.81 L1921.75,299.31 L1940.39,275.87 L1947.31,228.72 L1957.02,236.53 Z M1896.24,165.3 L1886.75,157.73 L1929.19,140.9 L1938.84,148.41 L1896.24,165.3 Z M1940.06,152.04 L1935.77,181.27 L1918.5,204.04 L1891.01,214.04 L1897.65,168.82 L1940.06,152.04 Z M1927.95,234.53 L1923.66,263.95 L1906.53,285.81 L1878.92,296.68 L1885.54,251.55 L1927.95,234.53 Z M1969.13,154.08 L1962.13,201.95 L1945.66,222.47 L1935.5,214.68 C1952.6,193.21 1952.6,193.2 1952.68,192.68 L1959.47,146.42 L1969.13,154.08 Z M1948.93,191.61 C1946.93,194.09 1935.75,208.19 1931.25,213.83 L1930.04,215.35 L1943.89,225.97 L1936.8,274.31 L1919.43,296.14 L1888.98,308.26 L1876.47,313.19 L1878.25,301.06 L1908.87,288.99 L1927.27,265.52 L1932.38,230.71 L1917.73,219.01 L1888.6,230.48 L1890.38,218.38 L1920.86,207.24 L1939.41,182.79 L1944.52,147.98 L1929.81,136.53 L1881.25,155.79 L1854.92,335.26 L1845.45,327.7 L1871.56,148.17 L1931.56,124.4 L1955.93,143.66 L1948.93,191.61 Z" id="Shape"></path>
            <path d="M2497.12,1024.82 L2295.12,1135.63 L2293.92,1136.29 L2293.27,1159.67 L2347.76,1192.86 L2383.76,1214.75 L2421.1,1215.75 L2477.85,1184.75 L2478.51,1164.75 L2512.58,1165.75 L2569.09,1134.85 L2570.58,1069.69 L2497.12,1024.82 Z M2473.2,1181.82 L2419.96,1210.93 L2385.18,1210.03 L2350.23,1188.81 L2300.45,1158.48 L2494.13,1052.53 L2493.71,1067.63 L2418.32,1108.86 L2456.32,1132.11 L2455.9,1147.27 L2404.66,1116.37 L2326.86,1158.91 L2348.2,1171.97 L2384.2,1193.86 L2421.54,1194.86 L2473.66,1166.31 L2473.2,1181.82 Z M2498.48,1067.82 L2498.9,1052.69 L2547.53,1082.31 L2547.3,1097.56 L2498.48,1067.82 Z M2544.6,1101.5 L2512.27,1119.18 L2476.62,1119.08 L2445.98,1099.24 L2495.98,1071.89 L2544.6,1101.5 Z M2453.36,1151.39 L2420.81,1169.19 L2386.17,1168.55 L2354.6,1149.21 L2404.52,1121.92 L2453.36,1151.39 Z M2564.36,1131.97 L2511.41,1160.97 L2478.59,1159.97 L2478.72,1143.97 C2512.94,1144.89 2512.95,1144.88 2513.55,1144.55 L2564.71,1116.55 L2564.36,1131.97 Z M2511.82,1140.05 C2507.87,1139.96 2485.41,1139.37 2476.41,1139.13 L2473.98,1139.07 L2473.81,1160.84 L2420.35,1190.08 L2385.56,1189.18 L2350.66,1167.9 L2336.36,1159.14 L2349.78,1151.8 L2384.78,1173.24 L2421.97,1173.94 L2460.48,1152.88 L2461.13,1129.5 L2427.83,1109.11 L2441.21,1101.79 L2475.21,1123.79 L2513.49,1123.9 L2551.99,1102.84 L2552.34,1079.6 L2496.66,1045.71 L2298.18,1154.27 L2298.6,1139.16 L2496.99,1030.33 L2565.76,1072.27 L2564.88,1111.01 L2511.82,1140.05 Z" id="Shape"></path>
            <path d="M398.22,946.06 L468.44,818.06 L468.85,817.3 L461.24,804.59 L420.82,805.41 L394.12,805.98 L373.84,818.18 L354.08,854.08 L360.54,865 L341.99,876 L322.31,911.75 L343.66,947.13 L398.22,946.06 Z M357.56,854.06 L376.09,820.38 L394.99,809.02 L420.89,808.46 L457.81,807.72 L390.38,930.23 L385.46,922.02 L411.7,874.32 L383.5,874.82 L378.56,866.58 L416.47,865.66 L443.55,816.44 L427.71,816.73 L401,817.3 L380.72,829.53 L362.56,862.53 L357.56,854.06 Z M382.87,923.6 L387.8,931.83 L351.73,932.56 L346.66,924.33 L382.87,923.6 Z M346.76,921.3 L358.02,900.85 L377.1,888.77 L400.22,888.93 L382.81,920.53 L346.76,921.3 Z M378.53,863.53 L389.86,842.94 L408.59,831.53 L432.04,831.11 L414.66,862.68 L378.53,863.53 Z M325.8,911.71 L344.24,878.21 L362.11,867.56 L367.49,876.14 C348.89,887.31 348.88,887.32 348.67,887.7 L330.86,920.06 L325.8,911.71 Z M351.13,889.51 C353.27,888.21 365.47,880.88 370.36,877.94 L371.68,877.15 L364.36,865.53 L382.98,831.7 L401.87,820.34 L427.76,819.79 L438.39,819.6 L433.72,828.09 L407.72,828.55 L387.61,840.85 L374.2,865.21 L381.82,877.92 L406.55,877.48 L401.89,885.94 L376.24,885.76 L355.75,898.76 L342.35,923.13 L350.07,935.66 L391.35,934.83 L460.46,809.24 L465.38,817.45 L396.38,943.15 L345.38,944.15 L332.67,923.15 L351.13,889.51 Z" id="Shape"></path>
            <path d="M1166.6,666.58 L1145.35,668.71 L1052.11,873.27 L1051.55,874.5 L1065.01,893.23 L1087.7,890.93 L1180.77,686.65 L1181.32,685.44 L1168.8,667.53 L1167.99,666.41 L1166.62,666.56 L1166.6,666.58 Z M1056.91,873.97 L1148.47,673.07 L1163.03,671.61 L1065.66,886.16 L1056.91,873.97 Z M1069.91,888.06 L1167.28,673.53 L1175.98,685.96 L1084.57,886.53 L1069.91,888.06 Z" id="Shape"></path>
            <path d="M977.8,380.19 L948.66,369.46 L924.75,389.46 L942.75,493.9 L942.68,493.9 L948.68,527.9 L1233.46,632.79 L1235.2,633.43 L1259.12,613.38 L1253.66,582.81 L1125.26,535.62 L1110.85,454.53 L1081.71,443.81 L1057.91,463.47 L1066.73,514.12 L996.4,488.27 L977.8,380.19 Z M934.5,389.68 L949.91,376.76 L968.66,383.65 L953.25,396.53 L934.5,389.68 Z M972.74,388.59 L989.46,485.7 L970.71,478.81 L957.36,401.53 L972.74,388.59 Z M1249.38,613.28 L1233.97,626.19 L954.39,523.19 L950.94,503.77 L1218.94,602.09 L1249.38,613.28 Z M1105.19,459.28 L1118.3,533.09 L1099.41,526.15 C1097.64,516.05 1089.31,468.65 1086.41,452.4 L1105.19,459.28 Z M1069.51,521.98 L1074.93,523.88 L1064.87,466.02 L1080.12,453.41 C1083.24,471.16 1092.97,526.52 1093.41,529.04 L1093.84,530.9 L1247.98,587.53 L1251.53,607.21 L949.66,496.53 L932.3,395.7 L951.04,402.59 L965.04,483.59 L1069.51,521.98 Z" id="Shape"></path>
            <path d="M702.84,20.44 L691.37,0.53 L668.37,0.59 L629.17,68.35 L616.43,90.53 L728.31,284.73 L728.99,285.92 L752.05,285.92 L763.41,265.92 L712.93,178.4 L743.14,125.53 L731.66,105.68 L708.86,105.57 L689.86,138.47 L662.26,90.53 L702.84,20.44 Z M673.84,5.33 L688.69,5.33 L696.07,18.11 L681.21,18.11 L673.84,5.33 Z M696.05,22.81 L659.57,85.81 L652.2,73.03 L681.2,22.86 L696.05,22.81 Z M746.62,281.15 L731.78,281.15 L621.89,90.53 L629.12,77.89 L734.6,260.43 L746.62,281.15 Z M737.66,125.53 L710.17,173.59 L702.74,160.72 L730.29,112.72 L737.66,125.53 Z M687.75,144.21 L689.93,147.85 L711.66,110.32 L726.28,110.39 L697.98,159.53 L697.34,160.79 L757.95,265.86 L750.65,278.7 L631.87,73.1 L669.66,7.71 L677.06,20.53 L646.66,73.01 L687.75,144.21 Z" id="Shape"></path>
            <path d="M1284.1,761.72 L1278.1,783.9 L1294.44,800.15 L1370.07,779.95 L1370.07,780.01 L1394.71,773.3 L1452.98,556.83 L1453.34,555.51 L1437,539.24 L1414.83,545.34 L1388.66,642.92 L1329.94,658.92 L1324,681.07 L1340,697.27 L1376.68,687.42 L1362.33,740.87 L1284.1,761.72 Z M1293.96,792.95 L1283.44,782.47 L1287.26,768.22 L1297.79,778.7 L1293.96,792.95 Z M1290.66,764.89 L1360.99,746.14 L1357.16,760.39 L1301.16,775.39 L1290.66,764.89 Z M1437.53,546.45 L1448.05,556.93 L1390.88,769.44 L1376.82,773.27 L1431.34,569.53 L1437.53,546.45 Z M1333.8,662.76 L1387.23,648.21 L1383.38,662.53 L1329.98,676.96 L1333.8,662.76 Z M1382.3,684.84 L1383.3,680.73 L1341.43,691.97 L1331.14,681.59 L1385.89,666.78 L1387.23,666.35 L1418.66,549.19 L1432.9,545.27 L1371.49,774.67 L1298.49,794.17 L1302.31,779.92 L1360.94,764.26 L1382.3,684.84 Z" id="Shape"></path>
            <path d="M0.08,615.89 L28.84,913.98 L29.01,915.75 L56.6,928.53 L124.18,880.47 L168.8,848.66 L189.1,804.56 L181.1,720.87 L157.53,709.87 L176.23,669.71 L168.29,586.37 L91.29,551.19 L0.08,615.89 Z M175.29,724.96 L182.76,803.47 L163.85,844.53 L120.58,875.38 L58.84,919.28 L31.66,633.68 L49.49,641.92 L60.07,753.1 L107.3,719.68 L125.19,727.95 L61.99,773.29 L72.91,888.01 L99.45,869.23 L144.07,837.42 L164.37,793.32 L157.05,716.41 L175.29,724.96 Z M52.07,636.29 L34.21,628.03 L94.53,585.14 L112.66,593.23 L52.07,636.29 Z M115.94,598.53 L120.48,646.2 L102.08,688.72 L62.66,715.1 L55.66,641.34 L115.94,598.53 Z M128.74,733.08 L133.31,781.08 L114.78,822.08 L75.51,849.87 L68.51,776.26 L128.74,733.08 Z M162.49,590.5 L169.92,668.6 L151.92,707.29 L132.92,698.94 C151.55,658.53 151.55,658.51 151.47,657.63 L144.29,582.18 L162.49,590.5 Z M145.2,657.4 C143.07,662.07 130.84,688.59 125.94,699.21 L124.66,702.03 L150.57,713.4 L158.08,792.24 L139.17,833.33 L95.9,864.17 L78.11,876.76 L76.22,856.97 L119.78,826.16 L139.68,782.09 L134.28,725.3 L106.66,712.53 L65.24,741.84 L63.36,722.11 L107.05,692.8 L126.81,647.14 L121.4,590.35 L93.83,578.02 L24.83,627.1 L52.66,919.86 L34.83,911.61 L6.58,618.87 L91.94,558.24 L137.75,579.16 L145.2,657.4 Z" id="Shape"></path>
            <path d="M2072.52,953.42 L2095.43,954.74 L2108.03,935.44 L2072.89,865.44 L2072.95,865.44 L2061.37,842.68 L1837.59,829.63 L1836.22,829.55 L1823.62,848.85 L1834.09,869.31 L1934.95,875.13 L1962.53,929.37 L1985.43,930.69 L1998.03,911.69 L1980.94,877.78 L2036.19,880.96 L2072.52,953.42 Z M2101.09,937.42 L2092.97,949.85 L2078.23,949 L2086.36,936.53 L2101.09,937.42 Z M2074.29,946.42 L2041.66,881.34 L2056.39,882.19 L2082.39,933.97 L2074.29,946.42 Z M1830.57,846.94 L1838.66,834.53 L2058.35,847.35 L2064.96,860.35 L1854.43,848.35 L1830.57,846.94 Z M1965.57,924.88 L1940.42,875.53 L1955.26,876.38 L1980.26,925.73 L1965.57,924.88 Z M1977.34,872.88 L1973.1,872.71 L1992.62,911.42 L1984.54,923.61 C1978.54,911.73 1959.77,874.69 1958.92,873 L1958.22,871.78 L1837.12,864.78 L1830.39,851.63 L2067.49,865.17 L2101.4,932.68 L2086.68,931.83 L2059.43,877.61 L1977.34,872.88 Z" id="Shape"></path>
        </g>
    </g>
</svg>