<?xml version="1.0" encoding="UTF-8"?>
<svg width="2931px" height="1685px" viewBox="0 0 2931 1685" version="1.1" xmlns="http://www.w3.org/2000/svg" xmlns:xlink="http://www.w3.org/1999/xlink">
    <!-- Generator: Sketch 52.2 (67145) - http://www.bohemiancoding.com/sketch -->
    <title>scattered_bif_1</title>
    <desc>Created with Sketch.</desc>
    <g id="scattered_bif_1" stroke="none" stroke-width="1" fill="none" fill-rule="evenodd" fill-opacity="0.25">
        <g transform="translate(75.000000, 0.000000)" fill="#FFFFFF" fill-rule="nonzero" id="Shape">
            <path d="M2200.11,1575.53 L2036.41,1277.53 L2035.41,1275.76 L2000.91,1274.83 L1951.98,1355.26 L1919.71,1408.45 L1918.31,1463.55 L1964.16,1547.28 L1993.69,1548.28 L1992.21,1598.56 L2037.86,1681.92 L2134,1684.06 L2200.11,1575.53 Z M1968.43,1540.35 L1925.43,1461.82 L1926.73,1410.49 L1958.02,1358.9 L2002.73,1285.41 L2159.19,1571.14 L2136.89,1570.54 L2076,1459.32 L2041.72,1515.32 L2019.35,1514.71 L2064.94,1439.08 L2002.09,1324.31 L1982.83,1355.81 L1950.56,1409 L1949.17,1464.1 L1991.3,1541.04 L1968.43,1540.35 Z M2136.72,1577.53 L2159.06,1578.14 L2115.39,1649.93 L2092.88,1649.6 L2136.72,1577.53 Z M2087.07,1645.62 L2060.95,1597.92 L2061.07,1545.32 L2090.31,1500.09 L2130.71,1573.87 L2087.07,1645.62 Z M2013.36,1511.02 L1987.07,1463.02 L1987.99,1411.91 L2016.5,1365.31 L2056.82,1438.95 L2013.36,1511.02 Z M2042.11,1674.86 L1999.33,1596.74 L2000.76,1548.31 L2024.34,1548.49 C2023.03,1598.99 2023.04,1599.01 2023.52,1599.9 L2064.85,1675.37 L2042.11,1674.86 Z M2030.11,1597.33 C2030.24,1591.51 2031.11,1558.33 2031.44,1545.08 L2031.54,1541.5 L1999.41,1541.26 L1956.22,1462.39 L1957.52,1411.06 L1988.81,1359.48 L2001.73,1338.37 L2012.57,1358.16 L1980.96,1409.84 L1979.96,1464.73 L2011.06,1521.54 L2045.56,1522.47 L2075.66,1473.31 L2086.47,1493.06 L2054.04,1543.23 L2053.91,1599.71 L2085.01,1656.51 L2119.31,1657.02 L2169.31,1574.87 L2008.92,1282.01 L2031.22,1282.62 L2191.97,1575.3 L2130.13,1676.82 L2072.97,1675.54 L2030.11,1597.33 Z"></path>
            <path d="M1689.8,569.81 L1629.38,436.91 L1629.02,436.12 L1614.28,434.6 L1590.72,467.45 L1575.18,489.18 L1572.8,512.73 L1589.71,550.05 L1602.33,551.42 L1600.06,572.9 L1616.9,610.07 L1657.99,614.07 L1689.8,569.81 Z M1591.8,547.24 L1575.94,512.24 L1578.16,490.31 L1593.23,469.24 L1614.75,439.24 L1672.47,566.64 L1662.95,565.64 L1640.48,516.05 L1623.99,538.94 L1614.43,537.94 L1636.43,507.04 L1613.25,455.87 L1603.98,468.73 L1588.44,490.45 L1586.05,514 L1601.6,548.3 L1591.8,547.24 Z M1662.65,568.63 L1672.19,569.63 L1651.19,598.95 L1641.57,598.08 L1662.65,568.63 Z M1639.18,596.17 L1629.55,574.9 L1631.3,552.38 L1645.3,533.97 L1660.2,566.86 L1639.18,596.17 Z M1611.99,536.17 L1602.29,514.76 L1604.34,492.91 L1618.05,473.91 L1632.93,506.74 L1611.99,536.17 Z M1618.99,607.25 L1603.21,572.42 L1605.39,551.73 L1615.48,552.57 C1613.28,574.15 1613.29,574.16 1613.48,574.57 L1628.66,608.18 L1618.99,607.25 Z M1616.38,573.67 C1616.63,571.18 1618.07,557.01 1618.65,551.34 L1618.8,549.81 L1605.06,548.67 L1589.06,513.53 L1591.28,491.6 L1606.35,470.53 L1612.57,461.91 L1616.57,470.74 L1601.36,491.84 L1599.15,515.3 L1610.66,540.58 L1625.4,542.1 L1639.86,522.03 L1643.86,530.84 L1628.35,551.26 L1626.46,575.44 L1637.94,600.77 L1652.6,602.1 L1676.66,568.53 L1617.46,437.97 L1626.99,438.97 L1686.32,569.49 L1656.56,610.92 L1632.12,608.53 L1616.38,573.67 Z"></path>
            <path d="M1515.95,1525.68 L1714.04,1536.95 L1715.22,1537.02 L1726.36,1520.24 L1701.72,1471.14 L1685.39,1438.71 L1658.57,1420.96 L1602.96,1417.73 L1593.35,1432.04 L1568.93,1415.75 L1513.57,1412.53 L1482.74,1459.43 L1515.95,1525.68 Z M1605.06,1421.96 L1657.22,1424.96 L1682.22,1441.49 L1698.05,1472.94 L1720.57,1517.8 L1530.8,1506.8 L1537.99,1495.96 L1611.86,1500.26 L1594.75,1465.95 L1601.97,1455.07 L1625.27,1501.07 L1701.5,1505.5 L1691.88,1486.22 L1675.56,1453.8 L1648.73,1436.05 L1597.63,1433.05 L1605.06,1421.96 Z M1534.56,1493.69 L1527.34,1504.53 L1505.34,1460.71 L1512.47,1449.71 L1534.56,1493.69 Z M1516.25,1448.06 L1547.92,1449.9 L1573.92,1466.24 L1587.24,1494.71 L1538.24,1491.86 L1516.25,1448.06 Z M1605.65,1453.26 L1637.54,1455.12 L1662.54,1471.4 L1676.77,1499.92 L1627.86,1497.07 L1605.65,1453.26 Z M1515.66,1416.76 L1567.54,1419.76 L1591.06,1435.46 L1583.67,1447.07 C1559.09,1430.79 1559.08,1430.79 1558.49,1430.75 L1508.37,1427.83 L1515.66,1416.76 Z M1557.71,1434.84 L1583.15,1451.67 L1584.89,1452.83 L1594.96,1437.01 L1647.34,1440.01 L1672.34,1456.54 L1688.17,1487.99 L1694.62,1500.91 L1681.47,1500.14 L1665.72,1468.53 L1638.87,1451.05 L1601.14,1448.85 L1590,1465.63 L1605,1495.71 L1591.89,1494.95 L1577.11,1463.38 L1549.21,1445.83 L1511.48,1443.63 L1500.66,1460.47 L1525.83,1510.62 L1720.34,1521.94 L1713.14,1532.78 L1518.56,1521.71 L1487.48,1459.71 L1505.8,1431.83 L1557.71,1434.84 Z"></path>
            <path d="M2303.54,1237.02 L2282.41,1253.78 L2322.99,1534.69 L2323.23,1536.38 L2350.31,1547.09 L2372.83,1529.17 L2332.28,1248.66 L2332.04,1247 L2306.54,1236.53 L2304.91,1235.88 L2303.56,1236.98 L2303.54,1237.02 Z M2328.56,1532.15 L2288.71,1256.26 L2303.18,1244.78 L2346.18,1539.12 L2328.56,1532.15 Z M2351.98,1538.24 L2308.98,1243.88 L2326.71,1251.14 L2366.54,1526.65 L2351.98,1538.24 Z"></path>
            <path d="M604.07,826.76 L613.97,807.83 L494.25,617.53 L493.53,616.39 L470.53,617.39 L459.99,637.61 L579.56,827.61 L580.27,828.74 L602.09,828.1 L603.48,828.05 L604.1,826.81 L604.07,826.76 Z M491.1,621.21 L608.66,808.04 L601.88,821.04 L476.04,621.79 L491.1,621.21 Z M472.19,624.34 L597.92,823.53 L582.75,823.97 L465.31,637.37 L472.19,624.34 Z"></path>
            <path d="M749.66,1199.07 L714.66,1195.42 L693.96,1224.13 L742.96,1333.93 L742.87,1333.93 L759.02,1369.67 L1101.33,1405.53 L1103.43,1405.75 L1124.13,1377.03 L1109.51,1344.9 L955.19,1328.84 L916.72,1243.67 L881.72,1240.03 L861.05,1268.28 L884.83,1321.53 L800.3,1312.73 L749.66,1199.07 Z M704.66,1221.59 L717.99,1203.09 L740.53,1205.44 L727.2,1223.94 L704.66,1221.59 Z M746.4,1209.73 L791.88,1311.83 L769.41,1309.53 L733.16,1228.25 L746.4,1209.73 Z M1113.33,1379.53 L1099.99,1398.02 L763.87,1362.82 L754.66,1342.53 L1076.78,1375.84 L1113.33,1379.53 Z M911.81,1250.46 L946.81,1327.95 L924.11,1325.58 C919.34,1314.98 896.95,1265.18 889.28,1248.11 L911.81,1250.46 Z M890.08,1329.35 L896.57,1329.92 L869.37,1269.15 L882.66,1251.03 C891.04,1269.67 917.19,1327.82 918.37,1330.47 L919.37,1332.4 L1104.66,1351.68 L1114.05,1372.32 L751.28,1334.79 L704.03,1228.79 L726.56,1231.13 L764.56,1316.24 L890.08,1329.35 Z"></path>
            <path d="M109.33,645.77 L107.78,622.86 L87.07,612.77 L22.07,656.36 L22.07,656.3 L0.9,670.63 L15.9,894.29 L15.99,895.66 L36.72,905.76 L55.72,892.82 L48.91,792.02 L99.29,757.88 L97.66,735 L77.24,724.86 L45.72,746.06 L41.99,690.84 L109.33,645.77 Z M89.89,619.41 L103.24,625.92 L104.24,640.64 L90.89,634.14 L89.89,619.41 Z M102.14,644.88 L41.66,685.38 L40.66,670.66 L88.8,638.39 L102.14,644.88 Z M33.84,899.11 L20.49,892.6 L5.8,673.03 L17.87,664.85 L32.21,875.24 L33.84,899.11 Z M94.34,755.53 L48.5,786.53 L47.5,771.7 L93.34,740.76 L94.34,755.53 Z M41.34,750.34 L41.66,754.53 L77.66,730.34 L90.75,736.84 L43.75,768.56 L42.62,769.41 L50.8,890.41 L38.59,898.73 L22.42,661.81 L85.17,619.74 L86.17,634.46 L35.77,668.25 L41.34,750.34 Z"></path>
            <path d="M891.02,876.06 L1104.38,963.06 L1105.64,963.57 L1124.2,949.34 L1115.66,886.13 L1109.95,844.36 L1087.17,814.76 L1027.3,790.25 L1011.35,802.36 L990.66,775.26 L931.06,750.86 L879.53,790.76 L891.02,876.06 Z M1028.02,795.7 L1084.17,818.7 L1105.39,846.27 L1110.93,886.78 L1118.76,944.54 L914.47,860.91 L926.47,851.72 L1005.99,884.27 L1000.11,840.14 L1012.11,830.91 L1020.4,890.18 L1102.45,923.77 L1099.15,898.97 L1093.44,857.2 L1070.66,827.59 L1015.66,805.07 L1028.02,795.7 Z M923.51,847.93 L911.51,857.14 L903.86,800.72 L915.86,791.29 L923.51,847.93 Z M920.6,790.93 L954.7,804.93 L977.09,832.67 L981,868.96 L928.24,847.36 L920.6,790.93 Z M1016.84,830.33 L1051.17,844.33 L1072.5,871.63 L1077.38,908.33 L1024.73,886.77 L1016.84,830.33 Z M931.78,756.33 L987.66,779.18 L1007.58,805.29 L995.09,815.29 C974.22,788.14 974.21,788.14 973.58,787.88 L919.58,765.79 L931.78,756.33 Z M971.17,792.03 C973.59,795.15 987.28,812.97 992.76,820.1 L994.25,822.03 L1011.25,808.44 L1067.66,831.53 L1088.89,859.1 L1094.42,899.61 L1096.64,916.23 L1082.48,910.44 L1077.07,869.75 L1054.16,840.43 L1013.55,823.8 L994.99,838.03 L1000.14,876.73 L986.03,870.95 L981.66,830.69 L957.66,800.91 L917.04,784.28 L898.78,798.65 L907.53,863.22 L1116.92,948.94 L1104.92,958.13 L895.39,872.68 L884.66,792.85 L915.29,769.13 L971.17,792.03 Z"></path>
            <path d="M1923.01,324.94 L1911.01,336.81 L1955.66,508.53 L1955.93,509.53 L1973.5,514.32 L1986.25,501.63 L1941.66,330.19 L1941.39,329.19 L1924.83,324.45 L1923.77,324.16 L1923.01,324.94 Z M1958.91,506.6 L1915.11,337.94 L1923.31,329.81 L1970.31,509.71 L1958.91,506.6 Z M1973.91,508.77 L1926.91,328.85 L1938.43,332.14 L1982.14,500.53 L1973.91,508.77 Z"></path>
            <path d="M1438.41,49.9 L1386.18,409.1 L1385.87,411.24 L1414.66,434.24 L1508.09,397.19 L1569.8,372.63 L1606.43,326.53 L1621.22,225.71 L1596.66,205.94 L1630.27,164.05 L1645,63.67 L1564.46,1.13686838e-13 L1438.41,49.9 Z M1613.17,228.9 L1599.29,323.47 L1565.16,366.36 L1505.32,390.18 L1419.96,424.04 L1470.45,79.96 L1489.06,94.82 L1469.4,228.74 L1534.66,203.04 L1553.33,217.95 L1465.83,253.06 L1445.56,391.26 L1482.23,376.82 L1543.94,352.26 L1580.57,306.21 L1594.16,213.53 L1613.17,228.9 Z M1493.73,88.9 L1475.09,74.02 L1558.47,40.95 L1577.47,55.7 L1493.73,88.9 Z M1579.83,62.84 L1571.4,120.27 L1537.46,165.01 L1483.46,184.74 L1496.46,95.89 L1579.83,62.84 Z M1556.04,224.92 L1547.56,282.75 L1513.89,325.7 L1459.66,347.1 L1472.66,258.43 L1556.04,224.92 Z M1636.94,66.84 L1623.14,160.91 L1590.77,201.26 L1570.77,185.94 C1604.38,143.75 1604.38,143.73 1604.54,142.67 L1617.88,51.78 L1636.94,66.84 Z M1597.27,140.59 C1593.41,145.47 1571.36,173.16 1562.52,184.25 L1560.14,187.25 L1587.36,208.13 L1573.42,303.13 L1539.3,346.03 L1479.46,369.83 L1454.88,379.53 L1458.37,355.7 L1518.54,332 L1554.66,285.85 L1564.66,217.44 L1535.87,194.44 L1478.64,216.98 L1482.13,193.2 L1542.04,171.32 L1578.48,123.32 L1588.48,54.92 L1559.66,32.41 L1464.24,70.26 L1412.49,422.91 L1393.89,408.05 L1445.19,55.29 L1563.19,8.58 L1611.07,46.43 L1597.27,140.59 Z"></path>
        </g>
    </g>
</svg>