<?xml version="1.0" encoding="UTF-8"?>
<svg width="299px" height="172px" viewBox="0 0 299 172" version="1.1" xmlns="http://www.w3.org/2000/svg" xmlns:xlink="http://www.w3.org/1999/xlink">
    <!-- Generator: Sketch 52.3 (67297) - http://www.bohemiancoding.com/sketch -->
    <title>scattered_bif_3</title>
    <desc>Created with Sketch.</desc>
    <g id="scattered_bif_3" stroke="none" stroke-width="1" fill="none" fill-rule="evenodd" fill-opacity="0.12">
        <g id="scatarred_bif_3" transform="translate(36.846755, 15.998697)" fill="#FFFFFF" fill-rule="nonzero">
            <path d="M190.363094,14.8196847 L187.654525,33.4484859 L187.638221,33.5585407 L189.131093,34.7508002 L193.976558,32.8289186 L197.176297,31.555137 L199.07678,29.1675607 L199.843087,23.938942 L198.573381,22.9117645 L200.315914,20.7402216 L201.080183,15.5340214 L196.90218,12.2313605 L190.363094,14.8196847 Z M199.425286,24.103005 L198.705854,29.0085928 L196.935807,31.236182 L193.832875,32.4712407 L189.402153,34.2229451 L192.020029,16.3787934 L192.985046,17.1491765 L191.966021,24.0948528 L195.350204,22.7619678 L196.318278,23.5343889 L191.780558,25.3553871 L190.728924,32.523211 L192.631445,31.7742274 L195.831184,30.5004458 L197.730647,28.1118505 L198.435813,23.3071463 L199.425286,24.103005 Z M193.231651,16.8444879 L192.264596,16.0730858 L196.589339,14.3580663 L197.572698,15.1233542 L193.231651,16.8444879 Z M197.697019,15.4932604 L197.259857,18.4718713 L195.500001,20.7921919 L192.6987,21.8112172 L193.375333,17.2031848 L197.697019,15.4932604 Z M196.46298,23.8992 L196.025818,26.8971724 L194.280228,29.1247616 L191.466699,30.2324421 L192.141293,25.633581 L196.46298,23.8992 Z M200.659326,15.7011416 L199.946008,20.5792156 L198.267673,22.6702555 L197.232344,21.8764348 C198.974877,19.6885875 198.974877,19.6875685 198.983029,19.6345792 L199.674947,14.9205682 L200.659326,15.7011416 Z M198.600895,19.5255435 C198.39709,19.7782617 197.257819,21.2150874 196.799258,21.7898177 L196.675956,21.9447095 L198.087306,23.0269143 L197.364817,27.9528826 L195.59477,30.1774148 L192.491838,31.4124734 L191.217038,31.9148529 L191.398424,30.6787752 L194.518679,29.4488117 L196.393686,27.0571593 L196.914408,23.5099323 L195.421536,22.3176728 L192.453115,23.4864948 L192.634502,22.2534742 L195.740491,21.11828 L197.630783,18.6267632 L198.151505,15.0795362 L196.652518,13.9127522 L191.704132,15.8753949 L189.021038,34.1638417 L188.056021,33.3934586 L190.716696,15.0988976 L196.830848,12.6766745 L199.314212,14.6393172 L198.600895,19.5255435 Z" id="Shape"></path>
            <path d="M254.462842,104.431749 L233.878531,115.723568 L233.756248,115.790824 L233.690011,118.173305 L239.24268,121.55545 L242.911171,123.786096 L246.716212,123.887999 L252.49918,120.729021 L252.566436,118.69097 L256.038255,118.792873 L261.796767,115.644084 L261.948602,109.004116 L254.462842,104.431749 Z M252.025333,120.430446 L246.600043,123.396829 L243.055873,123.305116 L239.494379,121.142745 L234.421672,118.052041 L254.158153,107.255468 L254.115354,108.794196 L246.432923,112.995638 L250.305219,115.364871 L250.26242,116.909714 L245.040934,113.760926 L237.112917,118.095859 L239.287517,119.426706 L242.956008,121.657353 L246.761049,121.759255 L252.072208,118.849938 L252.025333,120.430446 Z M254.601429,108.813558 L254.644228,107.271773 L259.599748,110.290126 L259.576311,111.844139 L254.601429,108.813558 Z M259.301174,112.245635 L256.006665,114.047272 L252.37384,114.037082 L249.251546,112.015335 L254.346673,109.228301 L259.301174,112.245635 Z M250.003587,117.329552 L246.68666,119.143417 L243.156756,119.0782 L239.939693,117.107405 L245.026668,114.326485 L250.003587,117.329552 Z M261.314768,115.350605 L255.919029,118.305778 L252.574588,118.203876 L252.587835,116.573435 C256.07494,116.667186 256.075959,116.666167 256.1371,116.632539 L261.350434,113.779268 L261.314768,115.350605 Z M255.960809,116.173978 C255.558294,116.164806 253.269563,116.104684 252.35244,116.080227 L252.104817,116.074113 L252.087494,118.292531 L246.639785,121.272161 L243.094596,121.180449 L239.538197,119.011963 L238.080991,118.119297 L239.448523,117.371332 L243.015112,119.556122 L246.804867,119.627454 L250.729133,117.481387 L250.79537,115.098906 L247.402016,113.021113 L248.765471,112.275187 L252.230157,114.517042 L256.130986,114.528252 L260.054234,112.382184 L260.089899,110.01397 L254.415967,106.560493 L234.190353,117.623031 L234.233152,116.083284 L254.449594,104.993232 L261.457431,109.267024 L261.367757,113.214728 L255.960809,116.173978 Z" id="Shape"></path>
            <path d="M40.5796249,96.405906 L47.7352204,83.3623824 L47.7770005,83.2849365 L47.0015222,81.9897553 L42.882622,82.0733154 L40.1618245,82.1313999 L38.0952412,83.3746107 L36.0816473,87.0329115 L36.7399376,88.1456871 L34.8496457,89.2666149 L32.8442039,92.9096303 L35.0198229,96.5149417 L40.5796249,96.405906 Z M36.4362681,87.0308734 L38.3245219,83.5987963 L40.2504797,82.4411835 L42.8897552,82.3841181 L46.6519965,82.3087103 L39.780709,94.792789 L39.2793486,93.9561693 L41.953271,89.0954187 L39.0796197,89.1463699 L38.5762212,88.3066931 L42.439346,88.2129428 L45.1988665,83.1973003 L43.5847304,83.226852 L40.8629139,83.2849365 L38.7963306,84.5312044 L36.9457807,87.8939878 L36.4362681,87.0308734 Z M39.0154211,94.1171753 L39.5178005,94.9558331 L35.8421763,95.0302219 L35.3255305,94.1915641 L39.0154211,94.1171753 Z M35.3357208,93.8827994 L36.4831432,91.7988927 L38.4274435,90.5679102 L40.7834299,90.5842146 L39.0093069,93.8043345 L35.3357208,93.8827994 Z M38.5731641,87.9958904 L39.7277197,85.8977173 L41.6363541,84.7350095 L44.0259684,84.6922104 L42.2549024,87.9092732 L38.5731641,87.9958904 Z M33.1998438,92.9055542 L35.0789264,89.4918195 L36.8999246,88.4065576 L37.4481602,89.2808813 C35.5527731,90.4191325 35.5517541,90.4201515 35.5303546,90.4588745 L33.7154706,93.7564403 L33.1998438,92.9055542 Z M35.7810348,90.6433181 C35.9991062,90.5108448 37.2423171,89.7638992 37.7406204,89.4643058 L37.8751318,89.3838028 L37.1292053,88.1996954 L39.0266303,84.7523329 L40.9515691,83.5947202 L43.5898256,83.5386738 L44.6730494,83.5193123 L44.1971646,84.3844648 L41.5476989,84.4313399 L39.498439,85.684741 L38.1319261,88.1670866 L38.9084234,89.4622678 L41.4284729,89.4174306 L40.9536071,90.279526 L38.3398073,90.2611836 L36.2518245,91.5859164 L34.8863306,94.0692811 L35.6730181,95.3461197 L39.8795545,95.2615406 L46.9220382,82.4636021 L47.4233987,83.3002219 L40.3921242,96.1093697 L35.1950953,96.2112722 L33.8999141,94.0713191 L35.7810348,90.6433181 Z" id="Shape"></path>
            <path d="M118.87949,67.9261874 L116.714061,68.1432398 L107.212669,88.988421 L107.155604,89.1137611 L108.527212,91.0223955 L110.83938,90.7880197 L120.323448,69.9713711 L120.379495,69.8480691 L119.103675,68.0229948 L119.021134,67.908864 L118.881528,67.9241493 L118.87949,67.9261874 Z M107.701801,89.0597528 L117.031997,68.5875348 L118.515698,68.4387571 L108.593448,90.3019446 L107.701801,89.0597528 Z M109.026534,90.4955594 L118.948783,68.63441 L119.835335,69.9010584 L110.520425,90.3396485 L109.026534,90.4955594 Z" id="Shape"></path>
            <path d="M99.6402923,38.7423223 L96.6708526,37.6489082 L94.2343632,39.6869587 L96.0686087,50.3296588 L96.0614755,50.3296588 L96.6728907,53.7943448 L125.692693,64.482901 L125.870003,64.5481186 L128.307512,62.5049729 L127.751124,59.3898126 L114.666839,54.5810323 L113.198424,46.3177562 L110.228984,45.2253611 L107.803704,47.2287648 L108.702484,52.3901279 L101.535679,49.7559476 L99.6402923,38.7423223 Z M95.2279128,39.7093773 L96.7982308,38.3927966 L98.7089032,39.094905 L97.1385852,40.4074096 L95.2279128,39.7093773 Z M99.1246655,39.5983035 L100.828476,49.4940581 L98.9178034,48.7919496 L97.5574046,40.9169222 L99.1246655,39.5983035 Z M127.314981,62.4947826 L125.744663,63.8103443 L97.2547541,53.3143838 L96.9031904,51.3354367 L124.213068,61.3544933 L127.314981,62.4947826 Z M112.621655,46.8017933 L113.957598,54.3232189 L112.032659,53.6160153 C111.852291,52.5867998 111.003443,47.7566199 110.707926,46.1007039 L112.621655,46.8017933 Z M108.985773,53.1910818 L109.538085,53.3846966 L108.512945,47.4886163 L110.066959,46.2036254 C110.384895,48.0123953 111.376406,53.6537193 111.421244,53.9105136 L111.465062,54.1000523 L127.172317,59.8707925 L127.534071,61.8762343 L96.7727551,50.5976624 L95.0037273,40.3228305 L96.9133806,41.0249389 L98.340016,49.2790437 L108.985773,53.1910818 Z" id="Shape"></path>
            <path d="M71.6211731,2.08288768 L70.4523511,0.0540083401 L68.1085929,0.0601224918 L64.1140138,6.96503782 L62.8157756,9.2252359 L74.2166305,29.0147069 L74.2859242,29.1359709 L76.6357965,29.1359709 L77.7934092,27.0979204 L72.6493696,18.1794111 L75.727845,12.7918244 L74.5580039,10.7690592 L72.2346263,10.7578499 L70.2984783,14.1104431 L67.4859685,9.2252359 L71.6211731,2.08288768 Z M68.6659998,0.543140477 L70.1792523,0.543140477 L70.931293,1.84545479 L69.4170214,1.84545479 L68.6659998,0.543140477 Z M70.9292549,2.32439667 L67.2118507,8.74425596 L66.460829,7.44194165 L69.4160024,2.3294918 L70.9292549,2.32439667 Z M76.0824658,28.6498959 L74.5702323,28.6498959 L63.3721634,9.2252359 L64.1089187,7.93718794 L74.8575974,26.5384755 L76.0824658,28.6498959 Z M75.1694191,12.7918244 L72.3681186,17.6892599 L71.6109828,16.3777744 L74.4183975,11.486453 L75.1694191,12.7918244 Z M70.0834639,14.6953636 L70.3056114,15.0662888 L72.5199534,11.2418869 L74.0097683,11.2490201 L71.1259268,16.2565104 L71.0607092,16.3849075 L77.2370214,27.0918062 L76.493133,28.4002347 L64.3891506,7.44907483 L68.2400472,0.785668494 L68.9941259,2.09205891 L65.896289,7.4399036 L70.0834639,14.6953636 Z" id="Shape"></path>
            <path d="M130.853037,77.621194 L130.241622,79.881392 L131.906709,81.5373081 L139.613597,79.478877 L139.613597,79.4849912 L142.124475,78.8012252 L148.062336,56.7423849 L148.099021,56.6078736 L146.433933,54.9499194 L144.174754,55.5715249 L141.507965,65.5151736 L135.524249,67.145614 L134.918948,69.402755 L136.549388,71.053576 L140.287173,70.0498361 L138.824872,75.4965262 L130.853037,77.621194 Z M131.857796,80.8036099 L130.785781,79.7356714 L131.175049,78.2835604 L132.248082,79.3514989 L131.857796,80.8036099 Z M131.521517,77.944225 L138.688322,76.0335526 L138.298035,77.4856636 L132.591494,79.0142015 L131.521517,77.944225 Z M146.487942,55.6846367 L147.559956,56.7525752 L141.734189,78.4078815 L140.301439,78.7981682 L145.857165,58.036547 L146.487942,55.6846367 Z M135.917592,67.5369197 L141.362245,66.054238 L140.96992,67.5134822 L135.528325,68.9839356 L135.917592,67.5369197 Z M140.859865,69.7869276 L140.961768,69.3681082 L136.695109,70.5134926 L135.646532,69.4557443 L141.225695,67.9465679 L141.362245,67.9027498 L144.565041,55.9638496 L146.016133,55.5643917 L139.758299,78.9408317 L132.319414,80.927931 L132.708682,79.47582 L138.683227,77.8800264 L140.859865,69.7869276 Z" id="Shape"></path>
            <path d="M0.00815220227,62.7607482 L2.93886892,93.1368729 L2.95619235,93.3172404 L5.76768311,94.6195547 L12.654256,89.7221192 L17.2011468,86.4805998 L19.2697681,81.9866983 L18.4545479,73.4584757 L16.0527053,72.3375479 L17.9582826,68.2451423 L17.1491765,59.7525856 L9.30268182,56.1676546 L0.00815220227,62.7607482 Z M17.8624942,73.875257 L18.6237061,81.8756245 L16.6967293,86.0597423 L12.2874069,89.2034353 L5.99594477,93.6769563 L3.22623405,64.5735942 L5.04315613,65.413271 L6.12128488,76.7427942 L10.9341413,73.3372117 L12.7571775,74.1799456 L6.31693774,78.8002062 L7.42971335,90.4904643 L10.1342065,88.5767348 L14.6810973,85.3352154 L16.7497186,80.8413139 L16.0037921,73.0039904 L17.8624942,73.875257 Z M5.30606466,64.8395598 L3.4860855,63.9978449 L9.63284601,59.6272455 L11.4803389,60.4516369 L5.30606466,64.8395598 Z M11.8145791,60.9917203 L12.2772166,65.8494139 L10.4022101,70.1823094 L6.38521243,72.8704981 L5.67189473,65.3541676 L11.8145791,60.9917203 Z M13.1189315,74.7027055 L13.5846261,79.5940269 L11.6963722,83.7720306 L7.69465992,86.6039018 L6.98134222,79.1028567 L13.1189315,74.7027055 Z M16.5581418,60.173443 L17.3152776,68.1320305 L15.4810321,72.0746393 L13.5448841,71.2237532 C15.4433282,67.105872 15.4433282,67.103834 15.435176,67.0141598 L14.7035158,59.325614 L16.5581418,60.173443 Z M14.7962471,66.9907222 C14.5791947,67.466607 13.3329268,70.169062 12.8336044,71.2512669 L12.7031692,71.538632 L15.3434637,72.6972638 L16.1087517,80.7312591 L14.1817749,84.918434 L9.77245248,88.061108 L7.9596065,89.3440608 L7.76701072,87.3274098 L12.2058849,84.1877929 L14.2337452,79.6969485 L13.6834715,73.9099039 L10.8689237,72.6086086 L6.64812095,75.5953717 L6.4565442,73.5848348 L10.9086657,70.5980717 L12.9222596,65.9452022 L12.370967,60.1581577 L9.56151424,58.9016995 L2.53023978,63.9030756 L5.36618715,93.7360598 L3.54926507,92.8953639 L0.670518637,63.0644178 L9.36891846,56.8860675 L14.0370733,59.0178684 L14.7962471,66.9907222 Z" id="Shape"></path>
            <path d="M211.195028,97.1559087 L213.529615,97.29042 L214.813587,95.3237012 L211.232732,88.1905242 L211.238846,88.1905242 L210.058815,85.8712227 L187.255067,84.5413947 L187.115461,84.5332425 L185.831489,86.4999613 L186.898408,88.584887 L197.176297,89.1779597 L199.986769,94.7051528 L202.320337,94.8396642 L203.604309,92.9035161 L201.862795,89.4480014 L207.492909,89.7720514 L211.195028,97.1559087 Z M214.106383,95.5254682 L213.278935,96.7921166 L211.776892,96.7054995 L212.605359,95.4347749 L214.106383,95.5254682 Z M211.375396,96.442591 L208.050316,89.8107744 L209.55134,89.8973916 L212.200806,95.1739045 L211.375396,96.442591 Z M186.539711,86.3053274 L187.364103,85.040717 L209.751069,86.3471075 L210.424645,87.6718403 L188.971106,86.44901 L186.539711,86.3053274 Z M200.296553,94.2476105 L197.733704,89.2187207 L199.245938,89.3053379 L201.793501,94.3342276 L200.296553,94.2476105 Z M201.495946,88.948679 L201.063879,88.9313556 L203.053016,92.8760025 L202.229644,94.1181943 C201.618229,92.9075922 199.705518,89.1331226 199.618901,88.9609073 L199.547569,88.8365862 L187.207173,88.1232685 L186.521369,86.7832503 L210.682458,88.1630105 L214.137973,95.0424502 L212.637968,94.9558331 L209.861124,89.430678 L201.495946,88.948679 Z" id="Shape"></path>
        </g>
    </g>
</svg>