<?xml version="1.0" encoding="UTF-8"?>
<svg width="299px" height="172px" viewBox="0 0 299 172" version="1.1" xmlns="http://www.w3.org/2000/svg" xmlns:xlink="http://www.w3.org/1999/xlink">
    <!-- Generator: Sketch 52.3 (67297) - http://www.bohemiancoding.com/sketch -->
    <title>scattered_bif_2</title>
    <desc>Created with Sketch.</desc>
    <g id="scattered_bif_2" stroke="none" stroke-width="1" fill="none" fill-rule="evenodd" fill-opacity="0.12">
        <g transform="translate(0.161845, 27.309878)" fill="#FFFFFF" fill-rule="nonzero" id="Shape">
            <path d="M60.4159711,15.3709774 L85.4310037,39.3455853 L85.5797814,39.4882488 L88.9619263,38.5252699 L91.2628854,29.2113788 L92.776138,23.054428 L91.2292576,17.653594 L84.2153066,10.9147798 L81.3151606,11.7238859 L79.9231721,6.79078449 L72.9397918,0.0805029975 L63.5270552,2.80537661 L60.4159711,15.3709774 Z M84.0135396,11.7167527 L90.5923668,18.0347095 L92.0332685,23.0646183 L90.5658721,29.0350874 L88.464642,37.5541388 L64.5277381,14.5537191 L66.7135473,13.9321137 L76.0304955,22.8801747 L77.6517647,16.3849075 L79.8447071,15.760245 L77.7220775,24.50552 L87.336581,33.7429842 L88.2475896,30.0928357 L89.7608422,23.9358849 L88.2139618,18.5350509 L81.7676078,12.3424342 L84.0135396,11.7167527 Z M66.5158564,13.2371384 L64.3259711,13.8607819 L66.379307,5.54757365 L68.5773446,4.89234039 L66.5158564,13.2371384 Z M69.2672247,5.1022596 L73.2618038,8.94092784 L74.8575974,14.0584728 L73.3952961,19.3492521 L67.2149077,13.4103727 L69.2672247,5.1022596 Z M80.5396824,15.9365364 L84.5627942,19.8027183 L86.0332477,24.7959422 L84.6860962,30.1967762 L78.5169172,24.2691062 L80.5396824,15.9365364 Z M72.7421009,0.885532972 L79.2862813,7.173938 L80.6262995,11.9266719 L78.3283975,12.6297994 C76.9139904,7.67835552 76.9119524,7.67733649 76.8385825,7.60600472 L70.5155306,1.53057598 L72.7421009,0.885532972 Z M76.2730235,8.05743292 C76.4381056,8.62808708 77.3664376,11.8767397 77.7383819,13.178035 L77.8402844,13.5295987 L80.9707301,12.5717149 L87.57809,18.9202425 L89.0189918,23.9501513 L87.5515953,29.9206204 L86.9401802,32.3662811 L85.282226,30.7725255 L86.7761171,24.7837139 L85.1966279,19.4154887 L80.4377798,14.8421033 L77.0566539,15.8050822 L75.6300185,21.5014335 L73.9761405,19.9127731 L75.5974097,14.0442065 L73.8854473,8.54962213 L69.1265992,3.97623666 L65.7770631,4.97488144 L63.4271908,14.4874825 L87.9653196,38.0636514 L85.7784914,38.6852569 L61.2087727,15.1406777 L64.121147,3.38316394 L69.7166148,1.76087569 L76.2730235,8.05743292 Z"></path>
            <path d="M202.360079,42.3364245 L199.843087,44.7892183 L208.839042,80.687441 L208.894069,80.9034744 L212.548294,81.9326899 L215.232406,79.3086998 L206.243584,43.4644854 L206.190595,43.2525282 L202.743233,42.2335029 L202.524142,42.1713424 L202.363136,42.3323484 L202.360079,42.3364245 Z M209.528922,80.2859451 L200.692954,45.0276702 L202.417144,43.3462785 L211.906308,80.9544257 L209.528922,80.2859451 Z M212.647139,80.764887 L203.158995,43.1587779 L205.554723,43.8649624 L214.383558,79.072286 L212.647139,80.764887 Z"></path>
            <path d="M26.034058,68.4102244 L22.850623,67.7662004 L0.135530363,93.3029741 L-1.13686838e-13,93.4558278 L1.11481366,96.7809073 L4.51326298,97.4636543 L27.1926897,71.9605085 L27.326182,71.8096928 L26.3071567,68.6507144 L26.2399011,68.4469093 L26.036096,68.4081864 L26.034058,68.4102244 Z M0.799934848,93.6198909 L23.1094554,68.5396406 L25.2891505,68.9808786 L1.52548085,95.7812435 L0.799934848,93.6198909 Z M2.05741205,96.2499952 L25.8231197,69.4496302 L26.5293043,71.6456297 L4.25443056,96.6902141 L2.05741205,96.2499952 Z"></path>
            <path d="M289.834228,68.1330495 L288.311805,68.2848843 L281.632094,82.941525 L281.592352,83.0291611 L282.55635,84.3712174 L284.181695,84.2061353 L290.849178,69.5698752 L290.88892,69.483258 L289.992177,68.2023433 L289.934093,68.1218403 L289.83219,68.1320305 L289.834228,68.1330495 Z M281.971429,82.9914572 L288.531914,68.5977251 L289.574377,68.4958225 L282.602206,83.8647619 L281.971429,82.9914572 Z M282.902818,84.0002922 L289.879066,68.6282958 L290.502709,69.5189239 L283.95751,83.8943136 L282.902818,84.0002922 Z"></path>
            <path d="M106.963008,78.7716735 L105.781958,77.8056375 L90.6952883,83.4459425 L90.6045951,83.4795703 L90.3376105,85.1100108 L91.6032399,86.1422834 L106.667491,80.5060545 L106.757165,80.4734457 L107.029245,78.9326795 L107.045549,78.830777 L106.968103,78.7686164 L106.963008,78.7716735 Z M90.9021505,83.7170032 L105.719797,78.1826769 L106.535017,78.8460623 L90.7329923,84.7818846 L90.9021505,83.7170032 Z M90.8471231,85.0896303 L106.651186,79.152789 L106.461648,80.2237845 L91.6654004,85.7570918 L90.8471231,85.0896303 Z"></path>
            <path d="M197.581869,99.7798988 L200.970129,98.9279936 L201.920879,95.5519629 L193.62907,86.9921505 L193.638242,86.9921505 L190.919482,84.2132685 L157.828674,92.5152675 L157.624869,92.5651997 L156.675137,95.9442876 L159.127931,98.4388615 L174.040347,94.6878294 L180.517272,101.311494 L183.902474,100.460608 L184.866472,97.1273759 L180.842341,92.977905 L189.010848,90.922531 L197.581869,99.7798988 Z M201.001718,96.1552258 L200.390303,98.3308448 L198.212646,98.8790804 L198.824061,96.7024424 L201.001718,96.1552258 Z M197.51869,98.6793515 L189.814859,90.719745 L191.992516,90.1725284 L198.131124,96.5067895 L197.51869,98.6793515 Z M157.594298,95.3389866 L158.205713,93.1643866 L190.693259,85.0121843 L192.243196,86.5967687 L161.124202,94.4432633 L157.594298,95.3389866 Z M180.740439,100.508502 L174.847415,94.4840244 L177.041377,93.9327317 L182.917077,99.9602662 L180.740439,100.508502 Z M180.081129,92.4245743 L179.458505,92.5927134 L184.056347,97.3250668 L183.437798,99.4650199 C182.02441,98.0139279 177.61305,93.4894557 177.412302,93.2836126 L177.255372,93.137892 L159.351098,97.6419837 L157.773647,96.0390569 L192.820983,87.2000316 L200.82237,95.4541364 L198.645732,96.002372 L192.218739,89.3695365 L180.081129,92.4245743 Z"></path>
            <path d="M49.1384182,106.401525 L48.6156583,108.351939 L50.0514649,109.778575 L56.704681,108.001395 L58.8721477,107.411379 L63.9947879,88.3719107 L64.0263776,88.2557418 L62.588533,86.8291064 L60.6391376,87.3651137 L58.3361404,95.9473447 L53.1717203,97.3546186 L52.6489603,99.307071 L54.0603104,100.733706 L57.2855254,99.8675349 L56.0239721,104.569318 L49.1384182,106.401525 Z M50.0056087,109.152893 L49.0803338,108.230675 L49.4166121,106.977274 L50.3418871,107.894397 L50.0056087,109.152893 Z M49.7121295,106.683795 L55.8976129,105.035012 L55.5613346,106.288413 L50.6363854,107.603975 L49.7121295,106.683795 Z M62.6354081,87.4670162 L63.5606831,88.384139 L58.5317933,107.07612 L57.2957156,107.413417 L62.0912486,89.4958956 L62.6354081,87.4670162 Z M53.5100367,97.6970111 L58.2087623,96.4171153 L57.8704459,97.6807067 L53.1737584,98.9493932 L53.5100367,97.6970111 Z M57.7756765,99.6392733 L57.8663698,99.2775193 L54.1836124,100.266993 L53.278718,99.3498701 L58.0946315,98.0475558 L58.2118194,98.0098518 L60.977454,87.7044491 L62.2298361,87.3600186 L56.8290021,107.536719 L50.4091428,109.251739 L50.7454211,107.998338 L55.901689,106.620615 L57.7756765,99.6392733 Z"></path>
            <path d="M134.844559,5.18887675 L131.398215,4.49084443 L106.800983,32.1431145 L106.6573,32.3092157 L107.863826,35.909432 L111.541489,36.6482253 L136.099998,9.03264012 L136.2447,8.86959607 L135.145171,5.44872819 L135.071801,5.23167581 L134.848635,5.18887675 L134.844559,5.18887675 Z M107.521434,32.4865261 L131.677428,5.32848321 L134.03851,5.80640607 L108.306083,34.8282462 L107.521434,32.4865261 Z M108.881833,35.3326637 L134.616297,6.30980456 L135.381585,8.68719055 L111.261257,35.8105865 L108.881833,35.3326637 Z"></path>
            <path d="M130.00317,85.3535578 L128.85269,84.0869094 L127.174355,84.4557965 L125.394118,90.0145795 L124.821426,91.8304825 L136.052104,104.207564 L136.121397,104.282971 L137.799732,103.913065 L138.309245,102.282625 L133.24367,96.7075375 L134.606107,92.3776991 L133.457665,91.1069746 L131.793597,91.4605763 L130.932521,94.1589553 L128.157715,91.1018794 L130.00317,85.3535578 Z M127.649221,84.7136099 L128.731426,84.476177 L129.471238,85.2913973 L128.389034,85.5288302 L127.649221,84.7136099 Z M129.544608,85.6307327 L127.886654,90.7982099 L127.146842,89.9829897 L128.464441,85.8732607 L129.544608,85.6307327 Z M137.324866,103.649138 L136.241642,103.892685 L125.216808,91.7397893 L125.542896,90.7044596 L136.122416,102.333576 L137.324866,103.649138 Z M134.207668,92.4592211 L132.967514,96.3967348 L132.222607,95.5764195 C132.392784,95.0383741 133.194757,92.5122104 133.468875,91.6460389 L134.207668,92.4592211 Z M130.868322,94.6114025 L131.085375,94.8427213 L132.067715,91.7622078 L133.133615,91.5359842 C132.827908,92.4816397 131.897538,95.4327369 131.855758,95.5672482 L131.828244,95.6691508 L137.910806,102.364147 L137.58268,103.415781 L125.668236,90.3162109 L127.386313,84.9520618 L128.126125,85.7672821 L126.746365,90.07674 L130.868322,94.6114025 Z"></path>
            <path d="M283.128023,28.8373965 L237.263733,34.3401331 L236.991653,34.3737609 L235.122761,38.6750666 L242.77666,48.9244229 L247.842235,55.6907508 L254.71556,58.6622285 L267.592983,57.1336906 L269.211195,53.4651996 L275.472086,56.2023015 L288.294481,54.6737636 L293.444635,42.6676077 L283.128023,28.8373965 Z M266.937749,56.2491767 L254.858224,57.6829452 L248.455688,54.9142535 L243.542967,48.3558068 L236.550415,38.9930025 L280.503014,33.7715169 L279.290374,36.5493799 L262.185015,38.5802973 L267.508403,45.745064 L266.296782,48.5331172 L259.079026,38.9542795 L241.426451,41.0453194 L244.41831,45.0714883 L249.483884,51.8367972 L256.35721,54.8092939 L268.19115,53.4040581 L266.937749,56.2491767 Z M280.168774,36.9284573 L281.378357,34.1444802 L288.205826,43.2912512 L287.024776,46.1139512 L280.168774,36.9284573 Z M286.228917,46.6418063 L278.891935,47.5120539 L272.268271,44.8279413 L268.051544,38.8472819 L279.402467,37.5001305 L286.228917,46.6418063 Z M265.523342,49.0986762 L258.136428,49.976057 L251.742044,47.2654498 L247.316417,41.309247 L258.641864,39.9641336 L265.523342,49.0986762 Z M287.636191,53.7912877 L275.620864,55.2179231 L269.589253,52.5796666 L270.812083,49.6163411 C277.110679,52.3463098 277.113736,52.3452908 277.249266,52.3300054 L288.858002,50.9512642 L287.636191,53.7912877 Z M277.258437,51.3649885 C276.530853,51.0531667 272.396668,49.2627393 270.736676,48.5453455 L270.289323,48.3517307 L268.628312,52.3891089 L256.501911,53.8289916 L250.099376,51.0602999 L245.186655,44.4987961 L243.181213,41.8004172 L246.22606,41.4386632 L251.134705,48.0439851 L258.001917,50.9553403 L266.740058,49.9179726 L268.607932,45.6187049 L263.938758,39.335395 L266.974434,38.9807742 L271.650741,45.6044385 L278.762519,48.4872611 L287.499641,47.4488743 L289.302297,43.1587779 L281.486373,32.6923692 L236.445456,38.0402139 L237.653001,35.2603129 L282.693918,29.8533647 L292.349183,42.7949858 L289.292107,49.9281628 L277.258437,51.3649885 Z"></path>
        </g>
    </g>
</svg>